{
.appVersion = "930";
DisplayStrings = (
"electronic frontier foundation."
);
copyright = "Copyright 2016 Jeremy Tribby. SIL OFL License v1.1.";
date = "2016-07-12 00:27:02 +0000";
designer = "Jeremy Tribby";
designerURL = "http://tribby.com/";
familyName = Barlow;
featurePrefixes = (
{
automatic = 1;
code = "languagesystem DFLT dflt;\012";
name = Languagesystems;
}
);
features = (
{
automatic = 1;
code = "sub hyphen hyphen by hyphen_hyphen.liga;\012";
name = liga;
}
);
fontMaster = (
{
alignmentZones = (
"{800, 16}",
"{700, 10}",
"{500, 6}",
"{0, -10}",
"{-200, -12}"
);
ascender = 800;
capHeight = 700;
customParameters = (
{
name = paramArea;
value = "488";
},
{
name = paramDepth;
value = "16";
},
{
name = paramOver;
value = "0";
}
);
descender = -200;
horizontalStems = (
22,
22
);
id = "262880E7-CFE1-4BDA-902E-E24798F3240A";
userData = {
GSCornerRadius = 8;
GSOffsetHorizontal = 11;
GSOffsetMakeStroke = 1;
GSOffsetVertical = 10;
noodleExtremesAndInflections = 1;
noodleRemoveOverlap = 1;
noodleThickness = "22.0";
};
verticalStems = (
21,
21
);
visible = 1;
weight = Light;
weightValue = 23;
xHeight = 500;
},
{
alignmentZones = (
"{800, 16}",
"{700, 11}",
"{500, 9}",
"{0, -11}",
"{-200, -10}"
);
ascender = 800;
capHeight = 700;
customParameters = (
{
name = paramArea;
value = "200";
},
{
name = paramDepth;
value = "20";
},
{
name = paramOver;
value = "0";
}
);
descender = -200;
horizontalStems = (
198,
208
);
id = "4F25946F-63AC-42D6-8D55-01CF6A99025B";
userData = {
GSCornerRadius = 12;
GSOffsetHorizontal = 104;
GSOffsetMakeStroke = 1;
GSOffsetVertical = 102;
noodleExtremesAndInflections = 1;
noodleRemoveOverlap = 1;
noodleThickness = "50.0";
};
verticalStems = (
202,
168
);
visible = 1;
weight = Bold;
weightValue = 202;
xHeight = 500;
}
);
glyphs = (
{
color = 1;
glyphname = A;
lastChange = "2016-10-19 06:30:08 +0000";
layers = (
{
layerId = "262880E7-CFE1-4BDA-902E-E24798F3240A";
paths = (
{
closed = 1;
nodes = (
"60 0 LINE",
"218 656 LINE",
"376 0 LINE",
"398 0 LINE",
"229 700 LINE",
"207 700 LINE",
"38 0 LINE"
);
},
{
closed = 1;
nodes = (
"341 145 LINE",
"341 166 LINE",
"94 166 LINE",
"94 145 LINE"
);
}
);
width = 436;
},
{
layerId = "4F25946F-63AC-42D6-8D55-01CF6A99025B";
paths = (
{
closed = 1;
nodes = (
"211 0 LINE",
"314 450 LINE",
"417 0 LINE",
"625 0 LINE",
"418 700 LINE",
"210 700 LINE",
"3 0 LINE"
);
},
{
closed = 1;
nodes = (
"464 87 LINE",
"464 240 LINE",
"164 240 LINE",
"164 87 LINE"
);
}
);
width = 628;
},
{
associatedMasterId = "262880E7-CFE1-4BDA-902E-E24798F3240A";
layerId = "09B97E43-C149-48A2-81D6-63259EF6020F";
name = "DemiBold{120,100}";
paths = (
{
closed = 1;
nodes = (
"137 0 LINE",
"254 529 LINE",
"371 0 LINE",
"491 0 LINE",
"314 700 LINE",
"194 700 LINE",
"17 0 LINE"
);
},
{
closed = 1;
nodes = (
"391 106 LINE",
"391 212 LINE",
"116 212 LINE",
"116 106 LINE"
);
}
);
width = 508;
}
);
unicode = 0041;
},
{
color = 1;
glyphname = B;
lastChange = "2016-10-19 06:30:08 +0000";
layers = (
{
layerId = "262880E7-CFE1-4BDA-902E-E24798F3240A";
paths = (
{
closed = 1;
nodes = (
"268 351 LINE SMOOTH",
"383 351 OFFCURVE",
"454 415 OFFCURVE",
"454 523 CURVE SMOOTH",
"454 631 OFFCURVE",
"383 700 OFFCURVE",
"268 700 CURVE SMOOTH",
"122 700 LINE",
"122 351 LINE"
);
},
{
closed = 1;
nodes = (
"268 0 LINE SMOOTH",
"383 0 OFFCURVE",
"454 71 OFFCURVE",
"454 186 CURVE SMOOTH",
"454 301 OFFCURVE",
"383 372 OFFCURVE",
"268 372 CURVE SMOOTH",
"122 372 LINE",
"122 0 LINE"
);
},
{
closed = 1;
nodes = (
"144 351 LINE",
"268 351 LINE SMOOTH",
"370 351 OFFCURVE",
"432 288 OFFCURVE",
"432 186 CURVE SMOOTH",
"432 84 OFFCURVE",
"370 22 OFFCURVE",
"268 22 CURVE SMOOTH",
"144 22 LINE"
);
},
{
closed = 1;
nodes = (
"144 679 LINE",
"268 679 LINE SMOOTH",
"370 679 OFFCURVE",
"432 618 OFFCURVE",
"432 523 CURVE SMOOTH",
"432 428 OFFCURVE",
"370 372 OFFCURVE",
"268 372 CURVE SMOOTH",
"144 372 LINE"
);
}
);
width = 546;
},
{
layerId = "4F25946F-63AC-42D6-8D55-01CF6A99025B";
paths = (
{
closed = 1;
nodes = (
"283 312 LINE SMOOTH",
"429 312 OFFCURVE",
"527 388 OFFCURVE",
"527 502 CURVE SMOOTH",
"527 621 OFFCURVE",
"427 700 OFFCURVE",
"278 700 CURVE",
"30 700 LINE",
"30 312 LINE"
);
},
{
closed = 1;
nodes = (
"307 0 LINE SMOOTH",
"452 0 OFFCURVE",
"548 82 OFFCURVE",
"548 205 CURVE SMOOTH",
"548 331 OFFCURVE",
"442 415 OFFCURVE",
"282 415 CURVE",
"30 415 LINE",
"30 0 LINE"
);
},
{
closed = 1;
nodes = (
"223 276 LINE",
"288 276 LINE SMOOTH",
"319 276 OFFCURVE",
"339 259 OFFCURVE",
"339 233 CURVE SMOOTH",
"339 206 OFFCURVE",
"318 188 OFFCURVE",
"287 188 CURVE SMOOTH",
"223 188 LINE"
);
},
{
closed = 1;
nodes = (
"223 515 LINE",
"282 515 LINE",
"311 515 OFFCURVE",
"331 497 OFFCURVE",
"331 470 CURVE SMOOTH",
"331 444 OFFCURVE",
"311 427 OFFCURVE",
"282 427 CURVE",
"223 427 LINE"
);
}
);
width = 566;
}
);
unicode = 0042;
},
{
color = 1;
glyphname = C;
lastChange = "2016-10-19 06:30:09 +0000";
layers = (
{
layerId = "262880E7-CFE1-4BDA-902E-E24798F3240A";
paths = (
{
closed = 1;
nodes = (
"372 -9 OFFCURVE",
"434 50 OFFCURVE",
"434 150 CURVE SMOOTH",
"434 152 LINE",
"412 152 LINE",
"412 150 LINE SMOOTH",
"412 64 OFFCURVE",
"360 11 OFFCURVE",
"273 11 CURVE SMOOTH",
"186 11 OFFCURVE",
"134 64 OFFCURVE",
"134 150 CURVE SMOOTH",
"134 550 LINE SMOOTH",
"134 637 OFFCURVE",
"188 690 OFFCURVE",
"273 690 CURVE SMOOTH",
"358 690 OFFCURVE",
"412 637 OFFCURVE",
"412 550 CURVE SMOOTH",
"412 548 LINE",
"434 548 LINE",
"434 550 LINE SMOOTH",
"434 650 OFFCURVE",
"372 709 OFFCURVE",
"273 709 CURVE SMOOTH",
"174 709 OFFCURVE",
"112 650 OFFCURVE",
"112 550 CURVE SMOOTH",
"112 150 LINE SMOOTH",
"112 50 OFFCURVE",
"174 -9 OFFCURVE",
"273 -9 CURVE SMOOTH"
);
}
);
width = 478;
},
{
layerId = "4F25946F-63AC-42D6-8D55-01CF6A99025B";
paths = (
{
closed = 1;
nodes = (
"415 -10 OFFCURVE",
"516 67 OFFCURVE",
"516 183 CURVE SMOOTH",
"516 278 LINE",
"308 278 LINE",
"308 233 LINE SMOOTH",
"308 206 OFFCURVE",
"290 188 OFFCURVE",
"264 188 CURVE SMOOTH",
"238 188 OFFCURVE",
"220 206 OFFCURVE",
"220 233 CURVE SMOOTH",
"220 467 LINE SMOOTH",
"220 494 OFFCURVE",
"238 512 OFFCURVE",
"264 512 CURVE SMOOTH",
"290 512 OFFCURVE",
"308 494 OFFCURVE",
"308 467 CURVE SMOOTH",
"308 422 LINE",
"516 422 LINE",
"516 517 LINE SMOOTH",
"516 633 OFFCURVE",
"415 710 OFFCURVE",
"264 710 CURVE SMOOTH",
"113 710 OFFCURVE",
"12 633 OFFCURVE",
"12 517 CURVE SMOOTH",
"12 183 LINE SMOOTH",
"12 67 OFFCURVE",
"113 -10 OFFCURVE",
"264 -10 CURVE SMOOTH"
);
}
);
width = 525;
}
);
unicode = 0043;
},
{
color = 1;
glyphname = D;
lastChange = "2016-10-19 06:30:08 +0000";
layers = (
{
layerId = "262880E7-CFE1-4BDA-902E-E24798F3240A";
paths = (
{
closed = 1;
nodes = (
"273 0 LINE SMOOTH",
"376 0 OFFCURVE",
"444 65 OFFCURVE",
"444 180 CURVE SMOOTH",
"444 520 LINE SMOOTH",
"444 635 OFFCURVE",
"376 700 OFFCURVE",
"273 700 CURVE SMOOTH",
"122 700 LINE",
"122 0 LINE"
);
},
{
closed = 1;
nodes = (
"144 679 LINE",
"273 679 LINE SMOOTH",
"362 679 OFFCURVE",
"422 622 OFFCURVE",
"422 520 CURVE SMOOTH",
"422 180 LINE SMOOTH",
"422 79 OFFCURVE",
"362 22 OFFCURVE",
"273 22 CURVE SMOOTH",
"144 22 LINE"
);
}
);
width = 551;
},
{
layerId = "4F25946F-63AC-42D6-8D55-01CF6A99025B";
paths = (
{
closed = 1;
nodes = (
"317 0 LINE SMOOTH",
"448 0 OFFCURVE",
"529 85 OFFCURVE",
"529 223 CURVE SMOOTH",
"529 477 LINE SMOOTH",
"529 615 OFFCURVE",
"448 700 OFFCURVE",
"317 700 CURVE SMOOTH",
"30 700 LINE",
"30 0 LINE"
);
},
{
closed = 1;
nodes = (
"238 526 LINE",
"273 526 LINE SMOOTH",
"300 526 OFFCURVE",
"317 505 OFFCURVE",
"317 471 CURVE SMOOTH",
"317 229 LINE SMOOTH",
"317 195 OFFCURVE",
"300 174 OFFCURVE",
"273 174 CURVE SMOOTH",
"238 174 LINE"
);
}
);
width = 541;
},
{
associatedMasterId = "262880E7-CFE1-4BDA-902E-E24798F3240A";
layerId = "5FA87B53-3B99-492D-B797-6707203108CA";
name = "DemiBold{119,100}";
paths = (
{
closed = 1;
nodes = (
"302 0 LINE SMOOTH",
"420 0 OFFCURVE",
"495 76 OFFCURVE",
"495 203 CURVE SMOOTH",
"495 497 LINE SMOOTH",
"495 624 OFFCURVE",
"420 700 OFFCURVE",
"302 700 CURVE SMOOTH",
"78 700 LINE",
"78 0 LINE"
);
},
{
closed = 1;
nodes = (
"200 581 LINE",
"279 581 LINE SMOOTH",
"334 581 OFFCURVE",
"371 543 OFFCURVE",
"371 478 CURVE SMOOTH",
"371 226 LINE SMOOTH",
"371 161 OFFCURVE",
"334 124 OFFCURVE",
"279 124 CURVE SMOOTH",
"200 124 LINE"
);
}
);
width = 559;
}
);
unicode = 0044;
},
{
color = 1;
glyphname = E;
lastChange = "2016-10-19 06:30:09 +0000";
layers = (
{
layerId = "262880E7-CFE1-4BDA-902E-E24798F3240A";
paths = (
{
closed = 1;
nodes = (
"443 0 LINE",
"443 21 LINE",
"144 21 LINE",
"144 679 LINE",
"443 679 LINE",
"443 700 LINE",
"122 700 LINE",
"122 0 LINE"
);
},
{
closed = 1;
nodes = (
"346 340 LINE",
"346 361 LINE",
"133 361 LINE",
"133 340 LINE"
);
}
);
width = 445;
},
{
layerId = "4F25946F-63AC-42D6-8D55-01CF6A99025B";
paths = (
{
closed = 1;
nodes = (
"492 0 LINE",
"492 198 LINE",
"238 198 LINE",
"238 502 LINE",
"492 502 LINE",
"492 700 LINE",
"30 700 LINE",
"30 0 LINE"
);
},
{
closed = 1;
nodes = (
"390 261 LINE",
"390 439 LINE",
"152 439 LINE",
"152 261 LINE"
);
}
);
width = 507;
},
{
associatedMasterId = "262880E7-CFE1-4BDA-902E-E24798F3240A";
layerId = "DE3E8A9A-5DAD-493A-9E98-F56387BAB1C1";
name = "DemiBold{119,100}";
paths = (
{
closed = 1;
nodes = (
"494 0 LINE",
"494 111 LINE",
"229 111 LINE",
"229 589 LINE",
"494 589 LINE",
"494 700 LINE",
"105 700 LINE",
"105 0 LINE"
);
},
{
closed = 1;
nodes = (
"394 300 LINE",
"394 400 LINE",
"177 400 LINE",
"177 300 LINE"
);
}
);
width = 559;
}
);
unicode = 0045;
},
{
color = 1;
glyphname = F;
lastChange = "2016-10-19 06:30:09 +0000";
layers = (
{
layerId = "262880E7-CFE1-4BDA-902E-E24798F3240A";
paths = (
{
closed = 1;
nodes = (
"144 0 LINE",
"144 679 LINE",
"443 679 LINE",
"443 700 LINE",
"122 700 LINE",
"122 0 LINE"
);
},
{
closed = 1;
nodes = (
"346 340 LINE",
"346 361 LINE",
"133 361 LINE",
"133 340 LINE"
);
}
);
width = 428;
},
{
layerId = "4F25946F-63AC-42D6-8D55-01CF6A99025B";
paths = (
{
closed = 1;
nodes = (
"238 0 LINE",
"238 502 LINE",
"506 502 LINE",
"506 700 LINE",
"30 700 LINE",
"30 0 LINE"
);
},
{
closed = 1;
nodes = (
"402 261 LINE",
"402 439 LINE",
"151 439 LINE",
"151 261 LINE"
);
}
);
width = 512;
},
{
associatedMasterId = "262880E7-CFE1-4BDA-902E-E24798F3240A";
layerId = "E70C252C-4698-4A26-900C-4F3FD049D2BA";
name = "DemiBold{119,100}";
paths = (
{
closed = 1;
nodes = (
"232 0 LINE",
"232 589 LINE",
"493 589 LINE",
"493 700 LINE",
"106 700 LINE",
"106 0 LINE"
);
},
{
closed = 1;
nodes = (
"393 300 LINE",
"393 400 LINE",
"180 400 LINE",
"180 300 LINE"
);
}
);
width = 544;
}
);
unicode = 0046;
},
{
color = 1;
glyphname = G;
lastChange = "2016-10-19 06:30:08 +0000";
layers = (
{
layerId = "262880E7-CFE1-4BDA-902E-E24798F3240A";
paths = (
{
closed = 1;
nodes = (
"372 -9 OFFCURVE",
"434 51 OFFCURVE",
"434 150 CURVE",
"434 361 LINE",
"273 361 LINE",
"273 340 LINE",
"412 340 LINE",
"412 150 LINE",
"412 63 OFFCURVE",
"360 11 OFFCURVE",
"273 11 CURVE SMOOTH",
"186 11 OFFCURVE",
"134 63 OFFCURVE",
"134 150 CURVE",
"134 550 LINE",
"134 637 OFFCURVE",
"186 690 OFFCURVE",
"273 690 CURVE SMOOTH",
"360 690 OFFCURVE",
"412 637 OFFCURVE",
"412 550 CURVE",
"434 550 LINE",
"434 649 OFFCURVE",
"372 709 OFFCURVE",
"273 709 CURVE SMOOTH",
"174 709 OFFCURVE",
"112 649 OFFCURVE",
"112 550 CURVE",
"112 150 LINE",
"112 51 OFFCURVE",
"174 -9 OFFCURVE",
"273 -9 CURVE SMOOTH"
);
}
);
width = 526;
},
{
layerId = "4F25946F-63AC-42D6-8D55-01CF6A99025B";
paths = (
{
closed = 1;
nodes = (
"415 -10 OFFCURVE",
"516 88 OFFCURVE",
"516 234 CURVE SMOOTH",
"516 403 LINE",
"264 403 LINE",
"264 287 LINE",
"308 287 LINE",
"308 244 LINE SMOOTH",
"308 210 OFFCURVE",
"290 188 OFFCURVE",
"264 188 CURVE SMOOTH",
"238 188 OFFCURVE",
"220 210 OFFCURVE",
"220 244 CURVE SMOOTH",
"220 456 LINE SMOOTH",
"220 490 OFFCURVE",
"238 512 OFFCURVE",
"264 512 CURVE SMOOTH",
"290 512 OFFCURVE",
"308 490 OFFCURVE",
"308 456 CURVE",
"516 456 LINE",
"516 602 OFFCURVE",
"415 710 OFFCURVE",
"264 710 CURVE SMOOTH",
"113 710 OFFCURVE",
"12 612 OFFCURVE",
"12 466 CURVE SMOOTH",
"12 234 LINE SMOOTH",
"12 88 OFFCURVE",
"113 -10 OFFCURVE",
"264 -10 CURVE SMOOTH"
);
}
);
width = 526;
},
{
associatedMasterId = "262880E7-CFE1-4BDA-902E-E24798F3240A";
layerId = "4BB53C67-4989-441E-8A0D-7E4F5FC64094";
name = "Medium {91, 100}";
paths = (
{
closed = 1;
nodes = (
"426 -9 OFFCURVE",
"504 65 OFFCURVE",
"504 182 CURVE",
"504 376 LINE",
"307 376 LINE",
"307 290 LINE",
"410 290 LINE",
"410 182 LINE",
"410 115 OFFCURVE",
"370 74 OFFCURVE",
"307 74 CURVE SMOOTH",
"243 74 OFFCURVE",
"204 115 OFFCURVE",
"204 182 CURVE",
"204 518 LINE",
"204 585 OFFCURVE",
"243 626 OFFCURVE",
"307 626 CURVE SMOOTH",
"370 626 OFFCURVE",
"410 585 OFFCURVE",
"410 518 CURVE",
"504 518 LINE",
"504 635 OFFCURVE",
"426 709 OFFCURVE",
"307 709 CURVE SMOOTH",
"187 709 OFFCURVE",
"110 635 OFFCURVE",
"110 518 CURVE",
"110 182 LINE",
"110 65 OFFCURVE",
"187 -9 OFFCURVE",
"307 -9 CURVE SMOOTH"
);
}
);
width = 602;
}
);
unicode = 0047;
},
{
color = 1;
glyphname = H;
lastChange = "2016-10-19 06:30:10 +0000";
layers = (
{
layerId = "262880E7-CFE1-4BDA-902E-E24798F3240A";
paths = (
{
closed = 1;
nodes = (
"444 0 LINE",
"444 700 LINE",
"422 700 LINE",
"422 0 LINE"
);
},
{
closed = 1;
nodes = (
"144 0 LINE",
"144 700 LINE",
"122 700 LINE",
"122 0 LINE"
);
},
{
closed = 1;
nodes = (
"427 340 LINE",
"427 361 LINE",
"139 361 LINE",
"139 340 LINE"
);
}
);
width = 566;
},
{
layerId = "4F25946F-63AC-42D6-8D55-01CF6A99025B";
paths = (
{
closed = 1;
nodes = (
"538 0 LINE",
"538 700 LINE",
"328 700 LINE",
"328 0 LINE"
);
},
{
closed = 1;
nodes = (
"240 0 LINE",
"240 700 LINE",
"30 700 LINE",
"30 0 LINE"
);
},
{
closed = 1;
nodes = (
"344 248 LINE",
"344 446 LINE",
"224 446 LINE",
"224 248 LINE"
);
}
);
width = 568;
}
);
unicode = 0048;
},
{
color = 1;
glyphname = I;
lastChange = "2016-10-19 06:30:09 +0000";
layers = (
{
layerId = "262880E7-CFE1-4BDA-902E-E24798F3240A";
paths = (
{
closed = 1;
nodes = (
"144 0 LINE",
"144 700 LINE",
"122 700 LINE",
"122 0 LINE"
);
}
);
width = 266;
},
{
layerId = "4F25946F-63AC-42D6-8D55-01CF6A99025B";
paths = (
{
closed = 1;
nodes = (
"232 0 LINE",
"232 700 LINE",
"30 700 LINE",
"30 0 LINE"
);
}
);
width = 262;
}
);
unicode = 0049;
},
{
color = 1;
glyphname = J;
lastChange = "2016-10-19 06:30:10 +0000";
layers = (
{
layerId = "262880E7-CFE1-4BDA-902E-E24798F3240A";
paths = (
{
closed = 1;
nodes = (
"270 -11 OFFCURVE",
"330 50 OFFCURVE",
"330 150 CURVE SMOOTH",
"330 700 LINE",
"308 700 LINE",
"308 150 LINE",
"308 64 OFFCURVE",
"256 11 OFFCURVE",
"172 11 CURVE SMOOTH",
"88 11 OFFCURVE",
"36 64 OFFCURVE",
"36 150 CURVE SMOOTH",
"36 195 LINE",
"14 195 LINE",
"14 150 LINE SMOOTH",
"14 50 OFFCURVE",
"74 -11 OFFCURVE",
"172 -11 CURVE SMOOTH"
);
}
);
width = 448;
},
{
layerId = "4F25946F-63AC-42D6-8D55-01CF6A99025B";
paths = (
{
closed = 1;
nodes = (
"398 -10 OFFCURVE",
"497 88 OFFCURVE",
"497 235 CURVE",
"492 702 LINE",
"284 700 LINE",
"289 243 LINE",
"289 210 OFFCURVE",
"273 188 OFFCURVE",
"250 188 CURVE SMOOTH",
"227 188 OFFCURVE",
"211 210 OFFCURVE",
"211 244 CURVE SMOOTH",
"211 290 LINE",
"3 290 LINE",
"3 234 LINE SMOOTH",
"3 88 OFFCURVE",
"102 -10 OFFCURVE",
"250 -10 CURVE SMOOTH"
);
}
);
width = 525;
}
);
unicode = 004A;
},
{
color = 1;
glyphname = K;
lastChange = "2016-10-19 06:30:08 +0000";
layers = (
{
layerId = "262880E7-CFE1-4BDA-902E-E24798F3240A";
paths = (
{
closed = 1;
nodes = (
"454 0 LINE",
"152 350 LINE",
"454 700 LINE",
"432 700 LINE",
"130 350 LINE",
"432 0 LINE"
);
},
{
closed = 1;
nodes = (
"144 0 LINE",
"144 700 LINE",
"122 700 LINE",
"122 0 LINE"
);
}
);
width = 459;
},
{
layerId = "4F25946F-63AC-42D6-8D55-01CF6A99025B";
paths = (
{
closed = 1;
nodes = (
"564 0 LINE",
"363 350 LINE",
"561 700 LINE",
"345 700 LINE",
"163 350 LINE",
"348 0 LINE"
);
},
{
closed = 1;
nodes = (
"238 0 LINE",
"238 700 LINE",
"30 700 LINE",
"30 0 LINE"
);
}
);
width = 567;
},
{
associatedMasterId = "262880E7-CFE1-4BDA-902E-E24798F3240A";
layerId = "52A147BE-A087-4D72-9A5D-908B44B10E17";
name = "Medium {91, 100}";
paths = (
{
closed = 1;
nodes = (
"524 0 LINE",
"260 350 LINE",
"522 700 LINE",
"407 700 LINE",
"142 350 LINE",
"407 0 LINE"
);
},
{
closed = 1;
nodes = (
"218 0 LINE",
"218 700 LINE",
"124 700 LINE",
"124 0 LINE"
);
}
);
width = 589;
},
{
associatedMasterId = "4F25946F-63AC-42D6-8D55-01CF6A99025B";
layerId = "57219196-2667-4E9B-A894-DD00D1913D76";
name = "Bold Oct 15 16, 02:53";
paths = (
{
closed = 1;
nodes = (
"590 0 LINE",
"413 350 LINE",
"585 700 LINE",
"335 700 LINE",
"193 350 LINE",
"335 0 LINE"
);
},
{
closed = 1;
nodes = (
"265 0 LINE",
"265 700 LINE",
"57 700 LINE",
"57 0 LINE"
);
}
);
width = 593;
}
);
unicode = 004B;
},
{
color = 1;
glyphname = L;
lastChange = "2016-10-19 06:30:09 +0000";
layers = (
{
layerId = "262880E7-CFE1-4BDA-902E-E24798F3240A";
paths = (
{
closed = 1;
nodes = (
"433 0 LINE",
"433 21 LINE",
"144 21 LINE",
"144 700 LINE",
"122 700 LINE",
"122 0 LINE"
);
}
);
width = 412;
},
{
layerId = "4F25946F-63AC-42D6-8D55-01CF6A99025B";
paths = (
{
closed = 1;
nodes = (
"487 0 LINE",
"487 192 LINE",
"238 192 LINE",
"238 700 LINE",
"30 700 LINE",
"30 0 LINE"
);
}
);
width = 493;
}
);
unicode = 004C;
},
{
color = 1;
glyphname = M;
lastChange = "2016-10-19 06:30:08 +0000";
layers = (
{
layerId = "262880E7-CFE1-4BDA-902E-E24798F3240A";
paths = (
{
closed = 1;
nodes = (
"144 0 LINE",
"144 653 LINE",
"301 324 LINE",
"458 653 LINE",
"458 0 LINE",
"480 0 LINE",
"480 700 LINE",
"458 700 LINE",
"301 372 LINE",
"144 700 LINE",
"122 700 LINE",
"122 0 LINE"
);
}
);
width = 602;
},
{
layerId = "4F25946F-63AC-42D6-8D55-01CF6A99025B";
paths = (
{
closed = 1;
nodes = (
"242 0 LINE",
"242 406 LINE",
"332 274 LINE",
"422 406 LINE",
"422 0 LINE",
"634 0 LINE",
"634 698 LINE",
"431 698 LINE",
"332 542 LINE",
"230 702 LINE",
"30 702 LINE",
"30 0 LINE"
);
}
);
width = 664;
},
{
associatedMasterId = "4F25946F-63AC-42D6-8D55-01CF6A99025B";
layerId = "BF6C6FBC-ABCF-4728-B32F-BE7F013B92F9";
name = "Medium {91, 100}";
paths = (
{
closed = 1;
nodes = (
"179 0 LINE",
"181 520 LINE",
"312 265 LINE",
"445 520 LINE",
"445 0 LINE",
"538 0 LINE",
"538 699 LINE",
"447 699 LINE",
"312 437 LINE",
"176 701 LINE",
"87 701 LINE",
"87 0 LINE"
);
}
);
width = 625;
}
);
unicode = 004D;
},
{
color = 1;
glyphname = N;
lastChange = "2016-10-19 06:30:09 +0000";
layers = (
{
layerId = "262880E7-CFE1-4BDA-902E-E24798F3240A";
paths = (
{
closed = 1;
nodes = (
"144 0 LINE",
"144 648 LINE",
"422 0 LINE",
"444 0 LINE",
"444 700 LINE",
"422 700 LINE",
"422 52 LINE",
"144 700 LINE",
"122 700 LINE",
"122 0 LINE"
);
}
);
width = 566;
},
{
layerId = "4F25946F-63AC-42D6-8D55-01CF6A99025B";
paths = (
{
closed = 1;
nodes = (
"238 -5 LINE",
"241 284 LINE",
"391 -5 LINE",
"565 -5 LINE",
"565 695 LINE",
"357 695 LINE",
"357 389 LINE",
"214 695 LINE",
"30 695 LINE",
"30 -5 LINE"
);
}
);
width = 595;
},
{
associatedMasterId = "4F25946F-63AC-42D6-8D55-01CF6A99025B";
layerId = "0B1885C1-B30B-43AF-BA88-F41889FEAFD7";
name = "DemiBold{119,100}";
paths = (
{
closed = 1;
nodes = (
"192 -3 LINE",
"194 423 LINE",
"403 -3 LINE",
"507 -3 LINE",
"507 697 LINE",
"385 697 LINE",
"385 263 LINE",
"179 697 LINE",
"70 697 LINE",
"70 -3 LINE"
);
}
);
width = 582;
}
);
unicode = 004E;
},
{
color = 1;
glyphname = O;
lastChange = "2016-10-19 06:30:09 +0000";
layers = (
{
layerId = "262880E7-CFE1-4BDA-902E-E24798F3240A";
paths = (
{
closed = 1;
nodes = (
"369 -9 OFFCURVE",
"441 60 OFFCURVE",
"441 150 CURVE SMOOTH",
"441 550 LINE SMOOTH",
"441 640 OFFCURVE",
"369 709 OFFCURVE",
"276 709 CURVE SMOOTH",
"183 709 OFFCURVE",
"111 640 OFFCURVE",
"111 550 CURVE SMOOTH",
"111 150 LINE SMOOTH",
"111 60 OFFCURVE",
"183 -9 OFFCURVE",
"276 -9 CURVE SMOOTH"
);
},
{
closed = 1;
nodes = (
"193 12 OFFCURVE",
"133 74 OFFCURVE",
"133 152 CURVE SMOOTH",
"133 548 LINE SMOOTH",
"133 627 OFFCURVE",
"195 688 OFFCURVE",
"276 688 CURVE SMOOTH",
"357 688 OFFCURVE",
"419 627 OFFCURVE",
"419 548 CURVE SMOOTH",
"419 152 LINE SMOOTH",
"419 74 OFFCURVE",
"359 12 OFFCURVE",
"276 12 CURVE SMOOTH"
);
}
);
width = 552;
},
{
layerId = "4F25946F-63AC-42D6-8D55-01CF6A99025B";
paths = (
{
closed = 1;
nodes = (
"428 -10 OFFCURVE",
"532 87 OFFCURVE",
"532 233 CURVE SMOOTH",
"532 467 LINE SMOOTH",
"532 613 OFFCURVE",
"428 710 OFFCURVE",
"272 710 CURVE SMOOTH",
"116 710 OFFCURVE",
"12 613 OFFCURVE",
"12 467 CURVE SMOOTH",
"12 233 LINE SMOOTH",
"12 87 OFFCURVE",
"116 -10 OFFCURVE",
"272 -10 CURVE SMOOTH"
);
},
{
closed = 1;
nodes = (
"243 188 OFFCURVE",
"224 208 OFFCURVE",
"224 237 CURVE SMOOTH",
"224 463 LINE SMOOTH",
"224 492 OFFCURVE",
"243 512 OFFCURVE",
"272 512 CURVE SMOOTH",
"301 512 OFFCURVE",
"320 492 OFFCURVE",
"320 463 CURVE SMOOTH",
"320 237 LINE SMOOTH",
"320 208 OFFCURVE",
"301 188 OFFCURVE",
"272 188 CURVE SMOOTH"
);
}
);
width = 544;
}
);
unicode = 004F;
},
{
color = 1;
glyphname = P;
lastChange = "2016-10-19 06:30:09 +0000";
layers = (
{
layerId = "262880E7-CFE1-4BDA-902E-E24798F3240A";
paths = (
{
closed = 1;
nodes = (
"144 0 LINE",
"144 679 LINE",
"268 679 LINE SMOOTH",
"368 679 OFFCURVE",
"429 616 OFFCURVE",
"429 513 CURVE SMOOTH",
"429 409 OFFCURVE",
"368 346 OFFCURVE",
"268 346 CURVE SMOOTH",
"139 346 LINE",
"139 325 LINE",
"268 325 LINE SMOOTH",
"381 325 OFFCURVE",
"451 397 OFFCURVE",
"451 512 CURVE SMOOTH",
"451 629 OFFCURVE",
"381 700 OFFCURVE",
"268 700 CURVE SMOOTH",
"122 700 LINE",
"122 0 LINE"
);
}
);
width = 483;
},
{
layerId = "4F25946F-63AC-42D6-8D55-01CF6A99025B";
paths = (
{
closed = 1;
nodes = (
"242 0 LINE",
"242 512 LINE",
"271 512 LINE SMOOTH",
"300 512 OFFCURVE",
"320 492 OFFCURVE",
"320 462 CURVE SMOOTH",
"320 432 OFFCURVE",
"300 412 OFFCURVE",
"271 412 CURVE SMOOTH",
"226 412 LINE",
"226 233 LINE",
"310 233 LINE SMOOTH",
"443 233 OFFCURVE",
"532 326 OFFCURVE",
"532 465 CURVE SMOOTH",
"532 606 OFFCURVE",
"440 700 OFFCURVE",
"301 700 CURVE SMOOTH",
"30 700 LINE",
"30 0 LINE"
);
}
);
width = 535;
}
);
unicode = 0050;
},
{
color = 1;
glyphname = Q;
lastChange = "2016-10-19 06:30:09 +0000";
layers = (
{
layerId = "262880E7-CFE1-4BDA-902E-E24798F3240A";
paths = (
{
closed = 1;
nodes = (
"361 -11 OFFCURVE",
"433 60 OFFCURVE",
"433 150 CURVE SMOOTH",
"433 550 LINE SMOOTH",
"433 640 OFFCURVE",
"361 711 OFFCURVE",
"272 711 CURVE SMOOTH",
"183 711 OFFCURVE",
"111 640 OFFCURVE",
"111 550 CURVE SMOOTH",
"111 150 LINE SMOOTH",
"111 60 OFFCURVE",
"183 -11 OFFCURVE",
"272 -11 CURVE SMOOTH"
);
},
{
closed = 1;
nodes = (
"411 -51 LINE",
"214 16 LINE",
"214 0 LINE",
"411 -72 LINE"
);
},
{
closed = 1;
nodes = (
"193 11 OFFCURVE",
"133 72 OFFCURVE",
"133 150 CURVE SMOOTH",
"133 550 LINE SMOOTH",
"133 629 OFFCURVE",
"195 690 OFFCURVE",
"272 690 CURVE SMOOTH",
"349 690 OFFCURVE",
"411 629 OFFCURVE",
"411 550 CURVE SMOOTH",
"411 150 LINE SMOOTH",
"411 72 OFFCURVE",
"351 11 OFFCURVE",
"272 11 CURVE SMOOTH"
);
}
);
width = 544;
},
{
layerId = "4F25946F-63AC-42D6-8D55-01CF6A99025B";
paths = (
{
closed = 1;
nodes = (
"422 -10 OFFCURVE",
"524 87 OFFCURVE",
"524 233 CURVE SMOOTH",
"524 467 LINE SMOOTH",
"524 613 OFFCURVE",
"422 710 OFFCURVE",
"268 710 CURVE SMOOTH",
"114 710 OFFCURVE",
"12 613 OFFCURVE",
"12 467 CURVE SMOOTH",
"12 233 LINE SMOOTH",
"12 87 OFFCURVE",
"114 -10 OFFCURVE",
"268 -10 CURVE SMOOTH"
);
},
{
closed = 1;
nodes = (
"540 113 LINE",
"216 118 LINE",
"216 -6 LINE",
"532 -43 LINE"
);
},
{
closed = 1;
nodes = (
"242 188 OFFCURVE",
"224 206 OFFCURVE",
"224 233 CURVE SMOOTH",
"224 467 LINE SMOOTH",
"224 494 OFFCURVE",
"242 512 OFFCURVE",
"268 512 CURVE SMOOTH",
"294 512 OFFCURVE",
"312 494 OFFCURVE",
"312 467 CURVE SMOOTH",
"312 233 LINE SMOOTH",
"312 206 OFFCURVE",
"294 188 OFFCURVE",
"268 188 CURVE SMOOTH"
);
}
);
width = 544;
}
);
unicode = 0051;
},
{
color = 1;
glyphname = R;
lastChange = "2016-10-19 06:30:09 +0000";
layers = (
{
layerId = "262880E7-CFE1-4BDA-902E-E24798F3240A";
paths = (
{
closed = 1;
nodes = (
"144 0 LINE",
"144 679 LINE",
"271 679 LINE SMOOTH",
"371 679 OFFCURVE",
"432 616 OFFCURVE",
"432 512 CURVE SMOOTH",
"432 408 OFFCURVE",
"371 344 OFFCURVE",
"271 344 CURVE SMOOTH",
"139 344 LINE",
"139 323 LINE",
"271 323 LINE SMOOTH",
"384 323 OFFCURVE",
"454 395 OFFCURVE",
"454 511 CURVE SMOOTH",
"454 628 OFFCURVE",
"384 700 OFFCURVE",
"271 700 CURVE SMOOTH",
"122 700 LINE",
"122 0 LINE"
);
},
{
closed = 1;
nodes = (
"412 0 LINE",
"293 340 LINE",
"275 332 LINE",
"390 0 LINE"
);
}
);
width = 514;
},
{
layerId = "4F25946F-63AC-42D6-8D55-01CF6A99025B";
paths = (
{
closed = 1;
nodes = (
"238 0 LINE",
"238 502 LINE",
"286 502 LINE SMOOTH",
"315 502 OFFCURVE",
"335 482 OFFCURVE",
"335 452 CURVE SMOOTH",
"335 422 OFFCURVE",
"315 402 OFFCURVE",
"286 402 CURVE SMOOTH",
"222 402 LINE",
"222 210 LINE",
"282 210 LINE SMOOTH",
"439 210 OFFCURVE",
"543 314 OFFCURVE",
"543 469 CURVE",
"543 608 OFFCURVE",
"439 700 OFFCURVE",
"282 700 CURVE SMOOTH",
"30 700 LINE",
"30 0 LINE"
);
},
{
closed = 1;
nodes = (
"536 0 LINE",
"385 320 LINE",
"197 320 LINE",
"328 0 LINE"
);
}
);
width = 566;
}
);
unicode = 0052;
},
{
color = 1;
glyphname = S;
lastChange = "2016-10-19 06:30:09 +0000";
layers = (
{
layerId = "262880E7-CFE1-4BDA-902E-E24798F3240A";
paths = (
{
closed = 1;
nodes = (
"339 -9 OFFCURVE",
"401 50 OFFCURVE",
"401 149 CURVE SMOOTH",
"401 255 OFFCURVE",
"329 306 OFFCURVE",
"246 361 CURVE SMOOTH",
"163 416 OFFCURVE",
"101 459 OFFCURVE",
"101 552 CURVE SMOOTH",
"101 636 OFFCURVE",
"153 690 OFFCURVE",
"237 690 CURVE SMOOTH",
"321 690 OFFCURVE",
"373 637 OFFCURVE",
"373 550 CURVE SMOOTH",
"373 500 LINE",
"395 500 LINE",
"395 550 LINE SMOOTH",
"395 650 OFFCURVE",
"335 709 OFFCURVE",
"237 709 CURVE SMOOTH",
"139 709 OFFCURVE",
"79 649 OFFCURVE",
"79 553 CURVE SMOOTH",
"79 446 OFFCURVE",
"154 394 OFFCURVE",
"232 342 CURVE SMOOTH",
"309 291 OFFCURVE",
"379 244 OFFCURVE",
"379 148 CURVE SMOOTH",
"379 63 OFFCURVE",
"325 11 OFFCURVE",
"238 11 CURVE SMOOTH",
"151 11 OFFCURVE",
"101 64 OFFCURVE",
"101 150 CURVE SMOOTH",
"101 210 LINE",
"81 210 LINE",
"81 150 LINE SMOOTH",
"81 50 OFFCURVE",
"138 -9 OFFCURVE",
"239 -9 CURVE SMOOTH"
);
}
);
width = 477;
},
{
layerId = "4F25946F-63AC-42D6-8D55-01CF6A99025B";
paths = (
{
closed = 1;
nodes = (
"428 -10 OFFCURVE",
"522 74 OFFCURVE",
"522 200 CURVE SMOOTH",
"522 312 OFFCURVE",
"448 381 OFFCURVE",
"335 425 CURVE SMOOTH",
"289 443 OFFCURVE",
"236 456 OFFCURVE",
"236 489 CURVE SMOOTH",
"236 503 OFFCURVE",
"246 518 OFFCURVE",
"270 518 CURVE SMOOTH",
"296 518 OFFCURVE",
"311 501 OFFCURVE",
"311 479 CURVE SMOOTH",
"311 464 LINE",
"523 474 LINE",
"523 479 LINE SMOOTH",
"523 617 OFFCURVE",
"416 710 OFFCURVE",
"264 710 CURVE SMOOTH",
"117 710 OFFCURVE",
"21 624 OFFCURVE",
"21 498 CURVE SMOOTH",
"21 389 OFFCURVE",
"94 318 OFFCURVE",
"208 275 CURVE SMOOTH",
"250 259 OFFCURVE",
"306 245 OFFCURVE",
"306 214 CURVE SMOOTH",
"306 201 OFFCURVE",
"297 182 OFFCURVE",
"271 182 CURVE SMOOTH",
"247 182 OFFCURVE",
"232 199 OFFCURVE",
"232 231 CURVE SMOOTH",
"232 236 LINE",
"9 226 LINE",
"9 221 LINE SMOOTH",
"9 83 OFFCURVE",
"115 -10 OFFCURVE",
"275 -10 CURVE SMOOTH"
);
}
);
width = 538;
}
);
unicode = 0053;
},
{
color = 1;
glyphname = T;
lastChange = "2016-10-19 06:30:08 +0000";
layers = (
{
layerId = "262880E7-CFE1-4BDA-902E-E24798F3240A";
paths = (
{
closed = 1;
nodes = (
"159 0 LINE",
"159 689 LINE",
"137 689 LINE",
"137 0 LINE"
);
},
{
closed = 1;
nodes = (
"313 679 LINE",
"313 700 LINE",
"-9 700 LINE",
"-9 679 LINE"
);
}
);
width = 297;
},
{
layerId = "4F25946F-63AC-42D6-8D55-01CF6A99025B";
paths = (
{
closed = 1;
nodes = (
"361 0 LINE",
"361 606 LINE",
"153 606 LINE",
"153 0 LINE"
);
},
{
closed = 1;
nodes = (
"511 502 LINE",
"511 700 LINE",
"3 700 LINE",
"3 502 LINE"
);
}
);
width = 514;
}
);
unicode = 0054;
},
{
color = 1;
glyphname = U;
lastChange = "2016-10-19 06:30:08 +0000";
layers = (
{
layerId = "262880E7-CFE1-4BDA-902E-E24798F3240A";
paths = (
{
closed = 1;
nodes = (
"377 -9 OFFCURVE",
"439 50 OFFCURVE",
"439 150 CURVE SMOOTH",
"439 700 LINE",
"417 700 LINE",
"417 150 LINE SMOOTH",
"417 64 OFFCURVE",
"365 11 OFFCURVE",
"278 11 CURVE SMOOTH",
"191 11 OFFCURVE",
"139 64 OFFCURVE",
"139 150 CURVE SMOOTH",
"139 700 LINE",
"117 700 LINE",
"117 150 LINE SMOOTH",
"117 50 OFFCURVE",
"179 -9 OFFCURVE",
"278 -9 CURVE SMOOTH"
);
}
);
width = 556;
},
{
layerId = "4F25946F-63AC-42D6-8D55-01CF6A99025B";
paths = (
{
closed = 1;
nodes = (
"426 -6 OFFCURVE",
"527 92 OFFCURVE",
"527 234 CURVE SMOOTH",
"527 700 LINE",
"319 700 LINE",
"319 244 LINE SMOOTH",
"319 210 OFFCURVE",
"301 188 OFFCURVE",
"275 188 CURVE SMOOTH",
"249 188 OFFCURVE",
"231 210 OFFCURVE",
"231 244 CURVE SMOOTH",
"231 700 LINE",
"23 696 LINE",
"23 230 LINE SMOOTH",
"23 82 OFFCURVE",
"124 -14 OFFCURVE",
"275 -10 CURVE SMOOTH"
);
}
);
width = 549;
}
);
unicode = 0055;
},
{
color = 1;
glyphname = V;
lastChange = "2016-10-19 06:30:09 +0000";
layers = (
{
layerId = "262880E7-CFE1-4BDA-902E-E24798F3240A";
paths = (
{
closed = 1;
nodes = (
"227 0 LINE",
"392 700 LINE",
"370 700 LINE",
"216 40 LINE",
"62 700 LINE",
"40 700 LINE",
"205 0 LINE"
);
}
);
width = 432;
},
{
layerId = "4F25946F-63AC-42D6-8D55-01CF6A99025B";
paths = (
{
closed = 1;
nodes = (
"383 0 LINE",
"555 700 LINE",
"347 700 LINE",
"279 300 LINE",
"211 700 LINE",
"3 700 LINE",
"175 0 LINE"
);
}
);
width = 558;
}
);
unicode = 0056;
},
{
color = 1;
glyphname = W;
lastChange = "2016-10-19 06:30:08 +0000";
layers = (
{
layerId = "262880E7-CFE1-4BDA-902E-E24798F3240A";
paths = (
{
closed = 1;
nodes = (
"207 0 LINE",
"321 648 LINE",
"435 0 LINE",
"457 0 LINE",
"582 700 LINE",
"560 700 LINE",
"446 52 LINE",
"332 700 LINE",
"310 700 LINE",
"196 52 LINE",
"82 700 LINE",
"60 700 LINE",
"185 0 LINE"
);
}
);
width = 642;
},
{
layerId = "4F25946F-63AC-42D6-8D55-01CF6A99025B";
paths = (
{
closed = 1;
nodes = (
"371 1 LINE",
"407 307 LINE",
"443 1 LINE",
"673 1 LINE",
"827 700 LINE",
"611 700 LINE",
"558 363 LINE",
"509 699 LINE",
"317 699 LINE",
"268 363 LINE",
"215 700 LINE",
"3 700 LINE",
"159 1 LINE"
);
}
);
width = 830;
}
);
unicode = 0057;
},
{
color = 1;
glyphname = X;
lastChange = "2016-10-19 06:30:09 +0000";
layers = (
{
layerId = "262880E7-CFE1-4BDA-902E-E24798F3240A";
paths = (
{
closed = 1;
nodes = (
"355 700 LINE",
"211 374 LINE",
"67 700 LINE",
"45 700 LINE",
"200 350 LINE",
"45 0 LINE",
"67 0 LINE",
"211 325 LINE",
"355 0 LINE",
"377 0 LINE",
"223 350 LINE",
"377 700 LINE"
);
}
);
width = 423;
},
{
layerId = "4F25946F-63AC-42D6-8D55-01CF6A99025B";
paths = (
{
closed = 1;
nodes = (
"385 700 LINE",
"303 530 LINE",
"221 700 LINE",
"3 700 LINE",
"194 350 LINE",
"3 0 LINE",
"221 0 LINE",
"303 170 LINE",
"385 0 LINE",
"603 0 LINE",
"412 350 LINE",
"603 700 LINE"
);
}
);
width = 606;
},
{
associatedMasterId = "4F25946F-63AC-42D6-8D55-01CF6A99025B";
layerId = "A81EC77E-A514-41C1-A690-EF61EA7402F1";
name = "Bold Oct 15 16, 02:50";
paths = (
{
closed = 1;
nodes = (
"4 700 LINE",
"242 700 LINE",
"582 0 LINE",
"344 0 LINE"
);
},
{
closed = 1;
nodes = (
"344 700 LINE",
"582 700 LINE",
"242 0 LINE",
"4 0 LINE"
);
}
);
width = 586;
},
{
associatedMasterId = "262880E7-CFE1-4BDA-902E-E24798F3240A";
layerId = "F2B2385B-1C24-46F1-AB29-8D87B4EEE0C2";
name = "DEMIBOLD{119,100}";
paths = (
{
closed = 1;
nodes = (
"370 700 LINE",
"256 444 LINE",
"142 700 LINE",
"23 700 LINE",
"191 350 LINE",
"23 0 LINE",
"142 0 LINE",
"256 255 LINE",
"370 0 LINE",
"489 0 LINE",
"322 350 LINE",
"489 700 LINE"
);
}
);
width = 536;
},
{
associatedMasterId = "262880E7-CFE1-4BDA-902E-E24798F3240A";
layerId = "077702AC-624F-4016-8C7C-9CDBE6837B88";
name = "Light Oct 16 16, 21:49";
paths = (
{
closed = 1;
nodes = (
"441 700 LINE",
"298 376 LINE",
"155 700 LINE",
"132 700 LINE",
"287 350 LINE",
"132 0 LINE",
"155 0 LINE",
"298 324 LINE",
"441 0 LINE",
"464 0 LINE",
"310 350 LINE",
"464 700 LINE"
);
}
);
width = 596;
}
);
unicode = 0058;
},
{
color = 1;
glyphname = Y;
lastChange = "2016-10-19 06:30:08 +0000";
layers = (
{
layerId = "262880E7-CFE1-4BDA-902E-E24798F3240A";
paths = (
{
closed = 1;
nodes = (
"341 697 LINE",
"319 697 LINE",
"174 360 LINE",
"29 697 LINE",
"7 697 LINE",
"174 318 LINE"
);
},
{
closed = 1;
nodes = (
"185 0 LINE",
"185 350 LINE",
"163 350 LINE",
"163 0 LINE"
);
}
);
width = 348;
},
{
layerId = "4F25946F-63AC-42D6-8D55-01CF6A99025B";
paths = (
{
closed = 1;
nodes = (
"610 700 LINE",
"394 700 LINE",
"317 479 LINE",
"219 700 LINE",
"3 700 LINE",
"316 52 LINE"
);
},
{
closed = 1;
nodes = (
"420 0 LINE",
"420 350 LINE",
"212 350 LINE",
"212 0 LINE"
);
}
);
width = 613;
}
);
unicode = 0059;
},
{
color = 1;
glyphname = Z;
lastChange = "2016-10-19 06:30:09 +0000";
layers = (
{
layerId = "262880E7-CFE1-4BDA-902E-E24798F3240A";
paths = (
{
closed = 1;
nodes = (
"331 0 LINE",
"331 21 LINE",
"45 21 LINE",
"340 679 LINE",
"340 700 LINE",
"32 700 LINE",
"32 679 LINE",
"319 679 LINE",
"23 21 LINE",
"23 0 LINE"
);
}
);
width = 363;
},
{
layerId = "4F25946F-63AC-42D6-8D55-01CF6A99025B";
paths = (
{
closed = 1;
nodes = (
"483 0 LINE",
"483 198 LINE",
"225 198 LINE",
"483 502 LINE",
"483 700 LINE",
"3 700 LINE",
"3 502 LINE",
"261 502 LINE",
"4 198 LINE",
"4 0 LINE"
);
}
);
width = 486;
},
{
associatedMasterId = "4F25946F-63AC-42D6-8D55-01CF6A99025B";
layerId = "8571AD0C-8F04-4BAF-8376-8975FEBCF70C";
name = "Demibold{119,100}";
paths = (
{
closed = 1;
nodes = (
"433 0 LINE",
"433 111 LINE",
"137 111 LINE",
"439 589 LINE",
"439 700 LINE",
"27 700 LINE",
"27 589 LINE",
"324 589 LINE",
"22 111 LINE",
"22 0 LINE"
);
}
);
width = 464;
}
);
unicode = 005A;
},
{
color = 1;
glyphname = a;
lastChange = "2016-10-19 06:30:09 +0000";
layers = (
{
layerId = "262880E7-CFE1-4BDA-902E-E24798F3240A";
paths = (
{
closed = 1;
nodes = (
"342 -5 OFFCURVE",
"396 62 OFFCURVE",
"396 166 CURVE SMOOTH",
"396 334 LINE SMOOTH",
"396 436 OFFCURVE",
"342 505 OFFCURVE",
"238 505 CURVE SMOOTH",
"146 505 OFFCURVE",
"81 439 OFFCURVE",
"81 339 CURVE SMOOTH",
"81 160 LINE SMOOTH",
"81 61 OFFCURVE",
"145 -5 OFFCURVE",
"239 -5 CURVE SMOOTH"
);
},
{
closed = 1;
nodes = (
"158 16 OFFCURVE",
"103 72 OFFCURVE",
"103 156 CURVE SMOOTH",
"103 344 LINE SMOOTH",
"103 428 OFFCURVE",
"158 484 OFFCURVE",
"240 484 CURVE SMOOTH",
"322 484 OFFCURVE",
"377 428 OFFCURVE",
"377 344 CURVE SMOOTH",
"377 156 LINE SMOOTH",
"377 72 OFFCURVE",
"322 16 OFFCURVE",
"240 16 CURVE SMOOTH"
);
},
{
closed = 1;
nodes = (
"399 0 LINE",
"399 500 LINE",
"377 500 LINE",
"377 0 LINE"
);
}
);
width = 497;
},
{
layerId = "4F25946F-63AC-42D6-8D55-01CF6A99025B";
paths = (
{
closed = 1;
nodes = (
"299 -5 OFFCURVE",
"372 76 OFFCURVE",
"372 208 CURVE SMOOTH",
"372 298 LINE",
"365 426 OFFCURVE",
"292 505 OFFCURVE",
"181 505 CURVE SMOOTH",
"76 505 OFFCURVE",
"12 443 OFFCURVE",
"12 341 CURVE SMOOTH",
"12 157 LINE SMOOTH",
"12 57 OFFCURVE",
"76 -5 OFFCURVE",
"181 -5 CURVE SMOOTH"
);
},
{
closed = 1;
nodes = (
"238 163 OFFCURVE",
"220 181 OFFCURVE",
"220 208 CURVE SMOOTH",
"220 294 LINE SMOOTH",
"220 321 OFFCURVE",
"238 339 OFFCURVE",
"264 339 CURVE SMOOTH",
"290 339 OFFCURVE",
"307 321 OFFCURVE",
"307 294 CURVE SMOOTH",
"307 208 LINE SMOOTH",
"307 181 OFFCURVE",
"290 163 OFFCURVE",
"264 163 CURVE SMOOTH"
);
},
{
closed = 1;
nodes = (
"515 0 LINE",
"515 500 LINE",
"307 500 LINE",
"307 0 LINE"
);
}
);
width = 539;
},
{
associatedMasterId = "4F25946F-63AC-42D6-8D55-01CF6A99025B";
layerId = "47FC566B-2B97-4943-A9EB-638501BAD42D";
name = "DemiBold{119,100}";
paths = (
{
closed = 1;
nodes = (
"356 -3 OFFCURVE",
"417 66 OFFCURVE",
"417 244 CURVE SMOOTH",
"417 255 LINE SMOOTH",
"417 420 OFFCURVE",
"353 504 OFFCURVE",
"224 504 CURVE SMOOTH",
"116 504 OFFCURVE",
"42 445 OFFCURVE",
"42 348 CURVE SMOOTH",
"42 153 LINE SMOOTH",
"42 56 OFFCURVE",
"109 -3 OFFCURVE",
"228 -3 CURVE SMOOTH"
);
},
{
closed = 1;
nodes = (
"199 94 OFFCURVE",
"164 130 OFFCURVE",
"164 183 CURVE SMOOTH",
"164 318 LINE SMOOTH",
"164 371 OFFCURVE",
"199 407 OFFCURVE",
"252 407 CURVE SMOOTH",
"304 407 OFFCURVE",
"339 371 OFFCURVE",
"339 318 CURVE SMOOTH",
"339 183 LINE SMOOTH",
"339 130 OFFCURVE",
"304 94 OFFCURVE",
"252 94 CURVE SMOOTH"
);
},
{
closed = 1;
nodes = (
"460 0 LINE",
"460 500 LINE",
"339 500 LINE",
"339 0 LINE"
);
}
);
width = 516;
visible = 1;
}
);
unicode = 0061;
},
{
color = 1;
glyphname = b;
lastChange = "2016-10-19 06:30:08 +0000";
layers = (
{
layerId = "262880E7-CFE1-4BDA-902E-E24798F3240A";
paths = (
{
closed = 1;
nodes = (
"120 0 LINE",
"120 700 LINE",
"98 700 LINE",
"98 0 LINE"
);
},
{
closed = 1;
nodes = (
"352 -5 OFFCURVE",
"416 61 OFFCURVE",
"416 160 CURVE SMOOTH",
"416 339 LINE SMOOTH",
"416 439 OFFCURVE",
"351 505 OFFCURVE",
"259 505 CURVE SMOOTH",
"155 505 OFFCURVE",
"101 436 OFFCURVE",
"101 334 CURVE SMOOTH",
"101 166 LINE SMOOTH",
"101 62 OFFCURVE",
"155 -5 OFFCURVE",
"258 -5 CURVE SMOOTH"
);
},
{
closed = 1;
nodes = (
"175 16 OFFCURVE",
"120 72 OFFCURVE",
"120 156 CURVE SMOOTH",
"120 344 LINE SMOOTH",
"120 428 OFFCURVE",
"175 484 OFFCURVE",
"257 484 CURVE SMOOTH",
"339 484 OFFCURVE",
"394 428 OFFCURVE",
"394 344 CURVE SMOOTH",
"394 156 LINE SMOOTH",
"394 72 OFFCURVE",
"339 16 OFFCURVE",
"257 16 CURVE SMOOTH"
);
}
);
width = 497;
},
{
layerId = "4F25946F-63AC-42D6-8D55-01CF6A99025B";
paths = (
{
closed = 1;
nodes = (
"229 0 LINE",
"229 700 LINE",
"22 700 LINE",
"22 0 LINE"
);
},
{
closed = 1;
nodes = (
"460 -5 OFFCURVE",
"523 64 OFFCURVE",
"523 155 CURVE SMOOTH",
"523 353 LINE SMOOTH",
"523 444 OFFCURVE",
"474 505 OFFCURVE",
"353 505 CURVE SMOOTH",
"195 505 OFFCURVE",
"168 399 OFFCURVE",
"164 301 CURVE",
"164 198 LINE SMOOTH",
"164 111 OFFCURVE",
"207 -5 OFFCURVE",
"351 -5 CURVE SMOOTH"
);
},
{
closed = 1;
nodes = (
"246 163 OFFCURVE",
"229 181 OFFCURVE",
"229 208 CURVE SMOOTH",
"229 294 LINE SMOOTH",
"229 321 OFFCURVE",
"246 339 OFFCURVE",
"272 339 CURVE SMOOTH",
"298 339 OFFCURVE",
"316 321 OFFCURVE",
"316 294 CURVE SMOOTH",
"316 208 LINE SMOOTH",
"316 181 OFFCURVE",
"298 163 OFFCURVE",
"272 163 CURVE SMOOTH"
);
}
);
width = 532;
},
{
associatedMasterId = "4F25946F-63AC-42D6-8D55-01CF6A99025B";
layerId = "C1792C53-241E-48FB-AF0D-246C75EB8055";
name = "Demibold{119,100}";
paths = (
{
closed = 1;
nodes = (
"179 0 LINE",
"179 700 LINE",
"60 700 LINE",
"60 0 LINE"
);
},
{
closed = 1;
nodes = (
"409 -3 OFFCURVE",
"473 56 OFFCURVE",
"473 153 CURVE SMOOTH",
"473 348 LINE SMOOTH",
"473 444 OFFCURVE",
"407 504 OFFCURVE",
"300 504 CURVE SMOOTH",
"175 504 OFFCURVE",
"101 421 OFFCURVE",
"101 255 CURVE SMOOTH",
"101 244 LINE SMOOTH",
"101 66 OFFCURVE",
"162 -3 OFFCURVE",
"290 -3 CURVE SMOOTH"
);
},
{
closed = 1;
nodes = (
"214 94 OFFCURVE",
"179 130 OFFCURVE",
"179 183 CURVE SMOOTH",
"179 318 LINE SMOOTH",
"179 371 OFFCURVE",
"214 407 OFFCURVE",
"266 407 CURVE SMOOTH",
"319 407 OFFCURVE",
"354 371 OFFCURVE",
"354 318 CURVE",
"354 183 LINE SMOOTH",
"354 130 OFFCURVE",
"319 94 OFFCURVE",
"266 94 CURVE SMOOTH"
);
}
);
width = 518;
}
);
unicode = 0062;
},
{
color = 1;
glyphname = c;
lastChange = "2016-10-19 06:30:09 +0000";
layers = (
{
layerId = "262880E7-CFE1-4BDA-902E-E24798F3240A";
paths = (
{
closed = 1;
nodes = (
"342 -5 OFFCURVE",
"404 54 OFFCURVE",
"404 154 CURVE SMOOTH",
"404 157 LINE",
"382 157 LINE",
"382 154 LINE SMOOTH",
"382 68 OFFCURVE",
"330 15 OFFCURVE",
"243 15 CURVE SMOOTH",
"156 15 OFFCURVE",
"104 68 OFFCURVE",
"104 154 CURVE SMOOTH",
"104 346 LINE SMOOTH",
"104 433 OFFCURVE",
"158 486 OFFCURVE",
"243 486 CURVE SMOOTH",
"328 486 OFFCURVE",
"382 433 OFFCURVE",
"382 346 CURVE SMOOTH",
"382 344 LINE",
"404 344 LINE",
"404 346 LINE SMOOTH",
"404 446 OFFCURVE",
"342 505 OFFCURVE",
"243 505 CURVE SMOOTH",
"144 505 OFFCURVE",
"82 446 OFFCURVE",
"82 346 CURVE SMOOTH",
"82 154 LINE SMOOTH",
"82 54 OFFCURVE",
"144 -5 OFFCURVE",
"243 -5 CURVE SMOOTH"
);
}
);
width = 459;
},
{
layerId = "4F25946F-63AC-42D6-8D55-01CF6A99025B";
paths = (
{
closed = 1;
nodes = (
"408 -5 OFFCURVE",
"511 67 OFFCURVE",
"519 176 CURVE",
"519 228 LINE",
"308 228 LINE",
"308 197 LINE SMOOTH",
"308 171 OFFCURVE",
"290 154 OFFCURVE",
"264 154 CURVE SMOOTH",
"238 154 OFFCURVE",
"221 171 OFFCURVE",
"221 197 CURVE",
"221 307 LINE",
"221 333 OFFCURVE",
"238 350 OFFCURVE",
"264 350 CURVE SMOOTH",
"290 350 OFFCURVE",
"308 333 OFFCURVE",
"308 307 CURVE",
"308 274 LINE",
"519 274 LINE",
"519 337 LINE",
"517 438 OFFCURVE",
"415 505 OFFCURVE",
"263 505 CURVE SMOOTH",
"111 505 OFFCURVE",
"9 438 OFFCURVE",
"9 337 CURVE SMOOTH",
"9 176 LINE SMOOTH",
"9 67 OFFCURVE",
"109 -5 OFFCURVE",
"260 -5 CURVE SMOOTH"
);
}
);
width = 525;
},
{
associatedMasterId = "4F25946F-63AC-42D6-8D55-01CF6A99025B";
layerId = "7B6958F8-F0D4-40F0-82E9-17D44A566858";
name = "DemiBold{119,100}";
paths = (
{
closed = 1;
nodes = (
"380 -5 OFFCURVE",
"464 61 OFFCURVE",
"468 166 CURVE SMOOTH",
"468 195 LINE",
"345 195 LINE",
"345 194 LINE SMOOTH",
"345 140 OFFCURVE",
"311 105 OFFCURVE",
"257 105 CURVE SMOOTH",
"202 105 OFFCURVE",
"169 140 OFFCURVE",
"169 194 CURVE SMOOTH",
"169 307 LINE SMOOTH",
"169 361 OFFCURVE",
"203 397 OFFCURVE",
"257 397 CURVE SMOOTH",
"310 397 OFFCURVE",
"345 361 OFFCURVE",
"345 307 CURVE SMOOTH",
"345 306 LINE",
"468 306 LINE",
"468 341 LINE SMOOTH",
"467 442 OFFCURVE",
"383 505 OFFCURVE",
"256 505 CURVE SMOOTH",
"129 505 OFFCURVE",
"45 442 OFFCURVE",
"45 341 CURVE SMOOTH",
"45 166 LINE SMOOTH",
"45 61 OFFCURVE",
"128 -5 OFFCURVE",
"254 -5 CURVE SMOOTH"
);
}
);
width = 505;
}
);
unicode = 0063;
},
{
color = 1;
glyphname = e;
lastChange = "2016-10-19 06:30:08 +0000";
layers = (
{
layerId = "262880E7-CFE1-4BDA-902E-E24798F3240A";
paths = (
{
closed = 1;
nodes = (
"342 -5 OFFCURVE",
"404 55 OFFCURVE",
"404 155 CURVE SMOOTH",
"404 159 LINE",
"382 159 LINE",
"382 155 LINE SMOOTH",
"382 69 OFFCURVE",
"330 16 OFFCURVE",
"243 16 CURVE SMOOTH",
"156 16 OFFCURVE",
"104 69 OFFCURVE",
"104 155 CURVE SMOOTH",
"104 344 LINE SMOOTH",
"104 431 OFFCURVE",
"158 484 OFFCURVE",
"243 484 CURVE SMOOTH",
"328 484 OFFCURVE",
"382 431 OFFCURVE",
"382 344 CURVE SMOOTH",
"382 261 LINE",
"99 261 LINE",
"99 240 LINE",
"404 240 LINE",
"404 344 LINE SMOOTH",
"404 444 OFFCURVE",
"342 505 OFFCURVE",
"243 505 CURVE SMOOTH",
"144 505 OFFCURVE",
"82 444 OFFCURVE",
"82 344 CURVE SMOOTH",
"82 155 LINE SMOOTH",
"82 55 OFFCURVE",
"144 -5 OFFCURVE",
"243 -5 CURVE SMOOTH"
);
}
);
width = 480;
},
{
layerId = "4F25946F-63AC-42D6-8D55-01CF6A99025B";
paths = (
{
closed = 1;
nodes = (
"403 -7 OFFCURVE",
"505 66 OFFCURVE",
"512 172 CURVE",
"512 187 LINE",
"304 187 LINE",
"304 184 LINE SMOOTH",
"304 161 OFFCURVE",
"287 145 OFFCURVE",
"262 145 CURVE SMOOTH",
"235 145 OFFCURVE",
"217 161 OFFCURVE",
"217 184 CURVE SMOOTH",
"217 307 LINE SMOOTH",
"217 334 OFFCURVE",
"235 352 OFFCURVE",
"262 352 CURVE SMOOTH",
"287 352 OFFCURVE",
"304 334 OFFCURVE",
"304 307 CURVE SMOOTH",
"304 279 LINE",
"206 279 LINE",
"206 226 LINE",
"512 226 LINE",
"512 337 LINE",
"510 438 OFFCURVE",
"410 507 OFFCURVE",
"261 507 CURVE SMOOTH",
"110 507 OFFCURVE",
"9 438 OFFCURVE",
"9 337 CURVE SMOOTH",
"9 172 LINE SMOOTH",
"9 66 OFFCURVE",
"108 -7 OFFCURVE",
"257 -7 CURVE SMOOTH"
);
}
);
width = 521;
},
{
associatedMasterId = "4F25946F-63AC-42D6-8D55-01CF6A99025B";
layerId = "A8631AE8-6F64-4109-B373-5711B024CF55";
name = "DemiBold {119,100}";
paths = (
{
closed = 1;
nodes = (
"380 -5 OFFCURVE",
"464 60 OFFCURVE",
"464 158 CURVE SMOOTH",
"464 170 LINE",
"342 170 LINE",
"342 169 LINE",
"342 127 OFFCURVE",
"308 99 OFFCURVE",
"256 99 CURVE SMOOTH",
"203 99 OFFCURVE",
"167 133 OFFCURVE",
"167 185 CURVE SMOOTH",
"167 325 LINE SMOOTH",
"167 368 OFFCURVE",
"203 396 OFFCURVE",
"256 396 CURVE SMOOTH",
"308 396 OFFCURVE",
"342 368 OFFCURVE",
"342 325 CURVE SMOOTH",
"342 287 LINE",
"159 287 LINE",
"159 211 LINE",
"464 211 LINE",
"464 340 LINE SMOOTH",
"464 439 OFFCURVE",
"380 505 OFFCURVE",
"255 505 CURVE SMOOTH",
"129 505 OFFCURVE",
"45 439 OFFCURVE",
"45 340 CURVE SMOOTH",
"45 164 LINE SMOOTH",
"45 63 OFFCURVE",
"128 -5 OFFCURVE",
"253 -5 CURVE SMOOTH"
);
}
);
width = 507;
visible = 1;
}
);
unicode = 0065;
},
{
color = 1;
glyphname = f;
lastChange = "2016-10-19 06:30:09 +0000";
layers = (
{
layerId = "262880E7-CFE1-4BDA-902E-E24798F3240A";
paths = (
{
closed = 1;
nodes = (
"126 0 LINE",
"126 550 LINE SMOOTH",
"126 637 OFFCURVE",
"179 689 OFFCURVE",
"265 689 CURVE",
"265 710 LINE",
"165 710 OFFCURVE",
"104 650 OFFCURVE",
"104 550 CURVE SMOOTH",
"104 0 LINE"
);
},
{
closed = 1;
nodes = (
"235 479 LINE",
"235 500 LINE",
"35 500 LINE",
"35 479 LINE"
);
}
);
width = 236;
},
{
layerId = "4F25946F-63AC-42D6-8D55-01CF6A99025B";
paths = (
{
closed = 1;
nodes = (
"236 8 LINE",
"236 525 LINE",
"236 545 OFFCURVE",
"258 551 OFFCURVE",
"280 551 CURVE",
"280 693 LINE",
"140 700 OFFCURVE",
"51 690 OFFCURVE",
"51 549 CURVE",
"51 8 LINE"
);
},
{
closed = 1;
nodes = (
"298 326 LINE",
"298 500 LINE",
"5 500 LINE",
"5 326 LINE"
);
}
);
width = 301;
}
);
unicode = 0066;
},
{
color = 1;
glyphname = g;
lastChange = "2016-10-19 06:30:09 +0000";
layers = (
{
layerId = "262880E7-CFE1-4BDA-902E-E24798F3240A";
paths = (
{
closed = 1;
nodes = (
"326 -206 OFFCURVE",
"399 -140 OFFCURVE",
"399 0 CURVE SMOOTH",
"399 500 LINE",
"377 500 LINE",
"377 0 LINE SMOOTH",
"377 -126 OFFCURVE",
"311 -185 OFFCURVE",
"192 -181 CURVE",
"192 -202 LINE"
);
},
{
closed = 1;
nodes = (
"342 -5 OFFCURVE",
"396 62 OFFCURVE",
"396 166 CURVE SMOOTH",
"396 334 LINE SMOOTH",
"396 436 OFFCURVE",
"342 505 OFFCURVE",
"238 505 CURVE SMOOTH",
"146 505 OFFCURVE",
"81 439 OFFCURVE",
"81 339 CURVE SMOOTH",
"81 160 LINE SMOOTH",
"81 61 OFFCURVE",
"145 -5 OFFCURVE",
"239 -5 CURVE SMOOTH"
);
},
{
closed = 1;
nodes = (
"158 16 OFFCURVE",
"103 72 OFFCURVE",
"103 156 CURVE SMOOTH",
"103 344 LINE SMOOTH",
"103 428 OFFCURVE",
"158 484 OFFCURVE",
"240 484 CURVE SMOOTH",
"322 484 OFFCURVE",
"377 428 OFFCURVE",
"377 344 CURVE SMOOTH",
"377 156 LINE SMOOTH",
"377 72 OFFCURVE",
"322 16 OFFCURVE",
"240 16 CURVE SMOOTH"
);
}
);
width = 497;
},
{
layerId = "4F25946F-63AC-42D6-8D55-01CF6A99025B";
paths = (
{
closed = 1;
nodes = (
"441 -226 OFFCURVE",
"508 -115 OFFCURVE",
"508 34 CURVE SMOOTH",
"508 500 LINE",
"296 500 LINE",
"296 34 LINE SMOOTH",
"296 -14 OFFCURVE",
"279 -44 OFFCURVE",
"135 -36 CURVE",
"135 -207 LINE"
);
},
{
closed = 1;
nodes = (
"326 -5 OFFCURVE",
"368 109 OFFCURVE",
"368 208 CURVE SMOOTH",
"368 298 LINE",
"364 394 OFFCURVE",
"322 505 OFFCURVE",
"176 505 CURVE SMOOTH",
"61 505 OFFCURVE",
"9 437 OFFCURVE",
"9 346 CURVE SMOOTH",
"9 152 LINE SMOOTH",
"9 61 OFFCURVE",
"65 -5 OFFCURVE",
"178 -5 CURVE SMOOTH"
);
},
{
closed = 1;
nodes = (
"226 165 OFFCURVE",
"209 181 OFFCURVE",
"209 206 CURVE SMOOTH",
"209 298 LINE SMOOTH",
"209 323 OFFCURVE",
"226 339 OFFCURVE",
"252 339 CURVE SMOOTH",
"278 339 OFFCURVE",
"296 323 OFFCURVE",
"296 298 CURVE SMOOTH",
"296 206 LINE SMOOTH",
"296 181 OFFCURVE",
"278 165 OFFCURVE",
"252 165 CURVE SMOOTH"
);
}
);
width = 535;
}
);
unicode = 0067;
},
{
color = 1;
glyphname = h;
lastChange = "2016-10-19 06:30:08 +0000";
layers = (
{
layerId = "262880E7-CFE1-4BDA-902E-E24798F3240A";
paths = (
{
closed = 1;
nodes = (
"420 0 LINE",
"420 346 LINE SMOOTH",
"420 444 OFFCURVE",
"359 504 OFFCURVE",
"263 504 CURVE SMOOTH",
"165 504 OFFCURVE",
"104 446 OFFCURVE",
"104 343 CURVE",
"120 343 LINE",
"120 430 OFFCURVE",
"175 483 OFFCURVE",
"263 483 CURVE SMOOTH",
"346 483 OFFCURVE",
"398 431 OFFCURVE",
"398 345 CURVE SMOOTH",
"398 0 LINE"
);
},
{
closed = 1;
nodes = (
"120 0 LINE",
"120 700 LINE",
"98 700 LINE",
"98 0 LINE"
);
}
);
width = 510;
},
{
layerId = "4F25946F-63AC-42D6-8D55-01CF6A99025B";
paths = (
{
closed = 1;
nodes = (
"529 0 LINE",
"529 350 LINE SMOOTH",
"529 441 OFFCURVE",
"484 505 OFFCURVE",
"367 505 CURVE",
"217 505 OFFCURVE",
"169 395 OFFCURVE",
"169 294 CURVE",
"235 294 LINE",
"235 321 OFFCURVE",
"252 339 OFFCURVE",
"278 339 CURVE SMOOTH",
"304 339 OFFCURVE",
"322 321 OFFCURVE",
"322 294 CURVE SMOOTH",
"322 0 LINE"
);
},
{
closed = 1;
nodes = (
"235 0 LINE",
"235 700 LINE",
"27 700 LINE",
"27 0 LINE"
);
}
);
width = 554;
},
{
associatedMasterId = "4F25946F-63AC-42D6-8D55-01CF6A99025B";
layerId = "6DA8EE20-322F-490D-912C-EA80E03ECB77";
name = "Medium {91, 100}";
paths = (
{
closed = 1;
nodes = (
"452 0 LINE",
"452 341 LINE SMOOTH",
"452 440 OFFCURVE",
"398 504 OFFCURVE",
"284 504 CURVE SMOOTH",
"171 504 OFFCURVE",
"120 441 OFFCURVE",
"120 324 CURVE",
"155 324 LINE",
"155 389 OFFCURVE",
"196 428 OFFCURVE",
"260 428 CURVE SMOOTH",
"323 428 OFFCURVE",
"360 389 OFFCURVE",
"360 326 CURVE SMOOTH",
"360 0 LINE"
);
},
{
closed = 1;
nodes = (
"155 0 LINE",
"155 700 LINE",
"62 700 LINE",
"62 0 LINE"
);
}
);
width = 508;
}
);
unicode = 0068;
},
{
color = 1;
glyphname = i;
lastChange = "2016-10-19 06:30:09 +0000";
layers = (
{
layerId = "262880E7-CFE1-4BDA-902E-E24798F3240A";
paths = (
{
closed = 1;
nodes = (
"120 0 LINE",
"120 500 LINE",
"98 500 LINE",
"98 0 LINE"
);
},
{
closed = 1;
nodes = (
"126 669 OFFCURVE",
"140 683 OFFCURVE",
"140 700 CURVE SMOOTH",
"140 716 OFFCURVE",
"126 730 OFFCURVE",
"109 730 CURVE SMOOTH",
"92 730 OFFCURVE",
"78 716 OFFCURVE",
"78 700 CURVE SMOOTH",
"78 683 OFFCURVE",
"92 669 OFFCURVE",
"109 669 CURVE SMOOTH"
);
}
);
width = 218;
},
{
layerId = "4F25946F-63AC-42D6-8D55-01CF6A99025B";
paths = (
{
closed = 1;
nodes = (
"235 0 LINE",
"235 500 LINE",
"27 500 LINE",
"27 0 LINE"
);
},
{
closed = 1;
nodes = (
"192 547 OFFCURVE",
"245 591 OFFCURVE",
"245 656 CURVE",
"245 715 OFFCURVE",
"192 763 OFFCURVE",
"131 763 CURVE SMOOTH",
"70 763 OFFCURVE",
"17 715 OFFCURVE",
"17 656 CURVE SMOOTH",
"17 595 OFFCURVE",
"68 547 OFFCURVE",
"131 547 CURVE SMOOTH"
);
}
);
width = 262;
}
);
unicode = 0069;
},
{
color = 1;
glyphname = j;
lastChange = "2016-10-19 06:30:08 +0000";
layers = (
{
layerId = "262880E7-CFE1-4BDA-902E-E24798F3240A";
paths = (
{
closed = 1;
nodes = (
"68 -211 OFFCURVE",
"120 -159 OFFCURVE",
"120 -74 CURVE SMOOTH",
"120 500 LINE",
"98 500 LINE",
"98 -74 LINE SMOOTH",
"98 -146 OFFCURVE",
"55 -190 OFFCURVE",
"-16 -190 CURVE",
"-16 -211 LINE"
);
},
{
closed = 1;
nodes = (
"128 669 OFFCURVE",
"140 681 OFFCURVE",
"140 700 CURVE SMOOTH",
"140 719 OFFCURVE",
"128 730 OFFCURVE",
"109 730 CURVE SMOOTH",
"90 730 OFFCURVE",
"78 719 OFFCURVE",
"78 700 CURVE SMOOTH",
"78 681 OFFCURVE",
"90 669 OFFCURVE",
"109 669 CURVE SMOOTH"
);
}
);
width = 218;
},
{
layerId = "4F25946F-63AC-42D6-8D55-01CF6A99025B";
paths = (
{
closed = 1;
nodes = (
"123 -236 OFFCURVE",
"236 -200 OFFCURVE",
"235 -39 CURVE",
"235 500 LINE",
"27 500 LINE",
"27 -8 LINE",
"27 -40 OFFCURVE",
"-27 -39 OFFCURVE",
"-60 -26 CURVE",
"-70 -201 LINE"
);
},
{
closed = 1;
nodes = (
"193 547 OFFCURVE",
"245 595 OFFCURVE",
"245 656 CURVE",
"245 715 OFFCURVE",
"193 763 OFFCURVE",
"131 763 CURVE SMOOTH",
"70 763 OFFCURVE",
"17 715 OFFCURVE",
"17 656 CURVE SMOOTH",
"17 595 OFFCURVE",
"68 547 OFFCURVE",
"131 547 CURVE SMOOTH"
);
}
);
width = 262;
}
);
unicode = 006A;
},
{
color = 1;
glyphname = k;
lastChange = "2016-10-19 06:30:09 +0000";
layers = (
{
layerId = "262880E7-CFE1-4BDA-902E-E24798F3240A";
paths = (
{
closed = 1;
nodes = (
"381 0 LINE",
"126 250 LINE",
"381 500 LINE",
"359 500 LINE",
"105 250 LINE",
"359 0 LINE"
);
},
{
closed = 1;
nodes = (
"120 0 LINE",
"120 700 LINE",
"98 700 LINE",
"98 0 LINE"
);
}
);
width = 369;
},
{
layerId = "4F25946F-63AC-42D6-8D55-01CF6A99025B";
paths = (
{
closed = 1;
nodes = (
"537 0 LINE",
"355 250 LINE",
"547 500 LINE",
"315 500 LINE",
"171 256 LINE",
"301 0 LINE"
);
},
{
closed = 1;
nodes = (
"215 0 LINE",
"216 700 LINE",
"28 700 LINE",
"27 0 LINE"
);
}
);
width = 542;
},
{
associatedMasterId = "4F25946F-63AC-42D6-8D55-01CF6A99025B";
layerId = "67D1648E-BAA1-4D62-B90C-A94E0FCB7E5A";
name = "DemiBold{119,100}";
paths = (
{
closed = 1;
nodes = (
"471 0 LINE",
"269 250 LINE",
"486 500 LINE",
"336 500 LINE",
"128 250 LINE",
"320 0 LINE"
);
},
{
closed = 1;
nodes = (
"176 0 LINE",
"177 700 LINE",
"56 700 LINE",
"55 0 LINE"
);
}
);
width = 478;
}
);
unicode = 006B;
},
{
color = 1;
glyphname = l;
lastChange = "2016-10-19 06:30:09 +0000";
layers = (
{
layerId = "262880E7-CFE1-4BDA-902E-E24798F3240A";
paths = (
{
closed = 1;
nodes = (
"120 0 LINE",
"120 700 LINE",
"98 700 LINE",
"98 0 LINE"
);
}
);
width = 218;
},
{
layerId = "4F25946F-63AC-42D6-8D55-01CF6A99025B";
paths = (
{
closed = 1;
nodes = (
"235 0 LINE",
"235 700 LINE",
"27 700 LINE",
"27 0 LINE"
);
}
);
width = 262;
}
);
unicode = 006C;
},
{
color = 1;
glyphname = m;
lastChange = "2016-10-19 06:30:08 +0000";
layers = (
{
layerId = "262880E7-CFE1-4BDA-902E-E24798F3240A";
paths = (
{
closed = 1;
nodes = (
"120 0 LINE",
"120 500 LINE",
"98 500 LINE",
"98 0 LINE"
);
},
{
closed = 1;
nodes = (
"410 0 LINE",
"410 345 LINE",
"410 445 OFFCURVE",
"349 506 OFFCURVE",
"255 506 CURVE SMOOTH",
"160 506 OFFCURVE",
"105 445 OFFCURVE",
"105 345 CURVE",
"120 345 LINE",
"120 432 OFFCURVE",
"171 485 OFFCURVE",
"254 485 CURVE SMOOTH",
"337 485 OFFCURVE",
"388 432 OFFCURVE",
"388 345 CURVE",
"388 0 LINE"
);
},
{
closed = 1;
nodes = (
"700 0 LINE",
"700 345 LINE SMOOTH",
"700 445 OFFCURVE",
"639 506 OFFCURVE",
"545 506 CURVE SMOOTH",
"450 506 OFFCURVE",
"395 445 OFFCURVE",
"395 345 CURVE",
"410 345 LINE",
"410 432 OFFCURVE",
"461 485 OFFCURVE",
"544 485 CURVE SMOOTH",
"627 485 OFFCURVE",
"678 432 OFFCURVE",
"678 345 CURVE SMOOTH",
"678 0 LINE"
);
}
);
width = 790;
},
{
layerId = "4F25946F-63AC-42D6-8D55-01CF6A99025B";
paths = (
{
closed = 1;
nodes = (
"235 0 LINE",
"235 500 LINE",
"27 500 LINE",
"27 0 LINE"
);
},
{
closed = 1;
nodes = (
"529 0 LINE",
"529 350 LINE SMOOTH",
"529 441 OFFCURVE",
"484 505 OFFCURVE",
"367 505 CURVE",
"217 505 OFFCURVE",
"169 395 OFFCURVE",
"169 294 CURVE",
"235 294 LINE",
"235 321 OFFCURVE",
"252 339 OFFCURVE",
"278 339 CURVE SMOOTH",
"304 339 OFFCURVE",
"322 321 OFFCURVE",
"322 294 CURVE SMOOTH",
"322 0 LINE"
);
},
{
closed = 1;
nodes = (
"823 0 LINE",
"823 350 LINE SMOOTH",
"823 441 OFFCURVE",
"778 505 OFFCURVE",
"661 505 CURVE",
"511 505 OFFCURVE",
"463 395 OFFCURVE",
"463 294 CURVE",
"529 294 LINE",
"529 321 OFFCURVE",
"546 339 OFFCURVE",
"572 339 CURVE SMOOTH",
"598 339 OFFCURVE",
"616 321 OFFCURVE",
"616 294 CURVE SMOOTH",
"616 0 LINE"
);
}
);
width = 847;
},
{
associatedMasterId = "4F25946F-63AC-42D6-8D55-01CF6A99025B";
layerId = "F5ED04A7-6D5C-4CB3-8E75-4B337E8B4478";
name = "Medium {91, 100}";
paths = (
{
closed = 1;
nodes = (
"154 0 LINE",
"154 500 LINE",
"62 500 LINE",
"62 0 LINE"
);
},
{
closed = 1;
nodes = (
"438 0 LINE",
"438 350 LINE SMOOTH",
"438 447 OFFCURVE",
"387 510 OFFCURVE",
"283 510 CURVE SMOOTH",
"174 510 OFFCURVE",
"116 440 OFFCURVE",
"116 336 CURVE",
"154 336 LINE",
"154 396 OFFCURVE",
"191 433 OFFCURVE",
"250 433 CURVE SMOOTH",
"309 433 OFFCURVE",
"346 396 OFFCURVE",
"346 336 CURVE SMOOTH",
"346 0 LINE"
);
},
{
closed = 1;
nodes = (
"722 0 LINE",
"722 350 LINE SMOOTH",
"722 447 OFFCURVE",
"671 510 OFFCURVE",
"567 510 CURVE SMOOTH",
"458 510 OFFCURVE",
"389 440 OFFCURVE",
"389 336 CURVE",
"438 336 LINE",
"438 396 OFFCURVE",
"475 433 OFFCURVE",
"534 433 CURVE SMOOTH",
"593 433 OFFCURVE",
"630 396 OFFCURVE",
"630 336 CURVE SMOOTH",
"630 0 LINE"
);
}
);
width = 793;
}
);
unicode = 006D;
},
{
color = 1;
glyphname = n;
lastChange = "2016-10-19 06:30:08 +0000";
layers = (
{
layerId = "262880E7-CFE1-4BDA-902E-E24798F3240A";
paths = (
{
closed = 1;
nodes = (
"420 0 LINE",
"420 335 LINE SMOOTH",
"420 440 OFFCURVE",
"362 504 OFFCURVE",
"267 504 CURVE SMOOTH",
"166 504 OFFCURVE",
"104 443 OFFCURVE",
"104 343 CURVE",
"120 343 LINE",
"120 430 OFFCURVE",
"175 483 OFFCURVE",
"265 483 CURVE SMOOTH",
"347 483 OFFCURVE",
"398 431 OFFCURVE",
"398 346 CURVE SMOOTH",
"398 0 LINE"
);
},
{
closed = 1;
nodes = (
"120 0 LINE",
"120 496 LINE",
"98 496 LINE",
"98 0 LINE"
);
}
);
width = 510;
},
{
layerId = "4F25946F-63AC-42D6-8D55-01CF6A99025B";
paths = (
{
closed = 1;
nodes = (
"529 0 LINE",
"529 350 LINE SMOOTH",
"529 441 OFFCURVE",
"484 505 OFFCURVE",
"367 505 CURVE",
"217 505 OFFCURVE",
"169 395 OFFCURVE",
"169 294 CURVE",
"235 294 LINE",
"235 321 OFFCURVE",
"252 339 OFFCURVE",
"278 339 CURVE SMOOTH",
"304 339 OFFCURVE",
"322 321 OFFCURVE",
"322 294 CURVE SMOOTH",
"322 0 LINE"
);
},
{
closed = 1;
nodes = (
"235 0 LINE",
"235 500 LINE",
"27 500 LINE",
"27 0 LINE"
);
}
);
width = 553;
},
{
associatedMasterId = "4F25946F-63AC-42D6-8D55-01CF6A99025B";
guideLines = (
{
angle = 60;
position = "{243, 250}";
showMeasurement = 1;
}
);
layerId = "48EED9EC-BBC9-457D-A249-2E4341C899C3";
name = "Medium {91, 100}";
paths = (
{
closed = 1;
nodes = (
"461 0 LINE",
"461 341 LINE SMOOTH",
"461 440 OFFCURVE",
"407 504 OFFCURVE",
"293 504 CURVE SMOOTH",
"180 504 OFFCURVE",
"129 441 OFFCURVE",
"129 324 CURVE",
"164 324 LINE",
"164 389 OFFCURVE",
"205 428 OFFCURVE",
"269 428 CURVE SMOOTH",
"332 428 OFFCURVE",
"369 389 OFFCURVE",
"369 326 CURVE SMOOTH",
"369 0 LINE"
);
},
{
closed = 1;
nodes = (
"164 0 LINE",
"164 498 LINE",
"71 498 LINE",
"71 0 LINE"
);
}
);
width = 526;
}
);
unicode = 006E;
},
{
color = 1;
glyphname = o;
lastChange = "2016-10-19 06:30:10 +0000";
layers = (
{
guideLines = (
{
angle = 180;
position = "{241, 250}";
showMeasurement = 1;
},
{
angle = 120;
position = "{241, 250}";
showMeasurement = 1;
},
{
angle = 60;
position = "{241, 250}";
showMeasurement = 1;
}
);
layerId = "262880E7-CFE1-4BDA-902E-E24798F3240A";
paths = (
{
closed = 1;
nodes = (
"338 -5 OFFCURVE",
"402 64 OFFCURVE",
"402 163 CURVE SMOOTH",
"402 337 LINE SMOOTH",
"402 436 OFFCURVE",
"338 505 OFFCURVE",
"241 505 CURVE SMOOTH",
"144 505 OFFCURVE",
"80 436 OFFCURVE",
"80 337 CURVE SMOOTH",
"80 163 LINE SMOOTH",
"80 64 OFFCURVE",
"144 -5 OFFCURVE",
"241 -5 CURVE SMOOTH"
);
},
{
closed = 1;
nodes = (
"158 16 OFFCURVE",
"102 72 OFFCURVE",
"102 156 CURVE SMOOTH",
"102 344 LINE SMOOTH",
"102 428 OFFCURVE",
"158 484 OFFCURVE",
"241 484 CURVE SMOOTH",
"324 484 OFFCURVE",
"380 428 OFFCURVE",
"380 344 CURVE SMOOTH",
"380 156 LINE SMOOTH",
"380 72 OFFCURVE",
"324 16 OFFCURVE",
"241 16 CURVE SMOOTH"
);
}
);
width = 482;
},
{
layerId = "4F25946F-63AC-42D6-8D55-01CF6A99025B";
paths = (
{
closed = 1;
nodes = (
"410 -5 OFFCURVE",
"516 70 OFFCURVE",
"524 182 CURVE",
"524 331 LINE",
"522 435 OFFCURVE",
"418 505 OFFCURVE",
"263 505 CURVE SMOOTH",
"112 505 OFFCURVE",
"12 435 OFFCURVE",
"12 331 CURVE SMOOTH",
"12 182 LINE SMOOTH",
"12 70 OFFCURVE",
"111 -5 OFFCURVE",
"260 -5 CURVE SMOOTH"
);
},
{
closed = 1;
nodes = (
"238 150 OFFCURVE",
"221 166 OFFCURVE",
"221 191 CURVE SMOOTH",
"221 307 LINE SMOOTH",
"221 332 OFFCURVE",
"238 348 OFFCURVE",
"264 348 CURVE SMOOTH",
"290 348 OFFCURVE",
"308 332 OFFCURVE",
"308 307 CURVE SMOOTH",
"308 191 LINE SMOOTH",
"308 166 OFFCURVE",
"290 150 OFFCURVE",
"264 150 CURVE SMOOTH"
);
}
);
width = 528;
}
);
unicode = 006F;
},
{
color = 1;
glyphname = p;
lastChange = "2016-10-19 06:30:09 +0000";
layers = (
{
layerId = "262880E7-CFE1-4BDA-902E-E24798F3240A";
paths = (
{
closed = 1;
nodes = (
"352 -5 OFFCURVE",
"416 61 OFFCURVE",
"416 160 CURVE SMOOTH",
"416 339 LINE SMOOTH",
"416 439 OFFCURVE",
"351 505 OFFCURVE",
"259 505 CURVE SMOOTH",
"155 505 OFFCURVE",
"101 436 OFFCURVE",
"101 334 CURVE SMOOTH",
"101 166 LINE SMOOTH",
"101 62 OFFCURVE",
"155 -5 OFFCURVE",
"258 -5 CURVE SMOOTH"
);
},
{
closed = 1;
nodes = (
"120 -200 LINE",
"120 500 LINE",
"98 500 LINE",
"98 -200 LINE"
);
},
{
closed = 1;
nodes = (
"175 16 OFFCURVE",
"120 72 OFFCURVE",
"120 156 CURVE SMOOTH",
"120 344 LINE SMOOTH",
"120 428 OFFCURVE",
"175 484 OFFCURVE",
"257 484 CURVE SMOOTH",
"339 484 OFFCURVE",
"394 428 OFFCURVE",
"394 344 CURVE SMOOTH",
"394 156 LINE SMOOTH",
"394 72 OFFCURVE",
"339 16 OFFCURVE",
"257 16 CURVE SMOOTH"
);
}
);
width = 497;
},
{
layerId = "4F25946F-63AC-42D6-8D55-01CF6A99025B";
paths = (
{
closed = 1;
nodes = (
"465 -5 OFFCURVE",
"528 64 OFFCURVE",
"528 155 CURVE SMOOTH",
"528 353 LINE SMOOTH",
"528 444 OFFCURVE",
"479 505 OFFCURVE",
"358 505 CURVE SMOOTH",
"200 505 OFFCURVE",
"174 399 OFFCURVE",
"169 301 CURVE",
"169 198 LINE SMOOTH",
"169 111 OFFCURVE",
"212 -5 OFFCURVE",
"356 -5 CURVE SMOOTH"
);
},
{
closed = 1;
nodes = (
"234 -200 LINE",
"234 500 LINE",
"27 500 LINE",
"27 -200 LINE"
);
},
{
closed = 1;
nodes = (
"251 161 OFFCURVE",
"234 179 OFFCURVE",
"234 206 CURVE SMOOTH",
"234 292 LINE SMOOTH",
"234 319 OFFCURVE",
"251 337 OFFCURVE",
"277 337 CURVE SMOOTH",
"303 337 OFFCURVE",
"321 319 OFFCURVE",
"321 292 CURVE SMOOTH",
"321 206 LINE SMOOTH",
"321 179 OFFCURVE",
"303 161 OFFCURVE",
"277 161 CURVE SMOOTH"
);
}
);
width = 537;
}
);
unicode = 0070;
},
{
color = 1;
glyphname = r;
lastChange = "2016-10-19 06:30:08 +0000";
layers = (
{
layerId = "262880E7-CFE1-4BDA-902E-E24798F3240A";
paths = (
{
closed = 1;
nodes = (
"120 331 LINE",
"120 418 OFFCURVE",
"170 483 OFFCURVE",
"252 483 CURVE SMOOTH",
"262 483 OFFCURVE",
"279 479 OFFCURVE",
"288 475 CURVE",
"305 488 LINE",
"291 496 OFFCURVE",
"271 502 OFFCURVE",
"252 502 CURVE SMOOTH",
"157 502 OFFCURVE",
"104 429 OFFCURVE",
"104 331 CURVE"
);
},
{
closed = 1;
nodes = (
"120 0 LINE",
"120 500 LINE",
"98 500 LINE",
"98 0 LINE"
);
}
);
width = 265;
},
{
layerId = "4F25946F-63AC-42D6-8D55-01CF6A99025B";
paths = (
{
closed = 1;
nodes = (
"235 248 LINE",
"235 282 OFFCURVE",
"275 301 OFFCURVE",
"307 301 CURVE SMOOTH",
"330 301 OFFCURVE",
"364 290 OFFCURVE",
"369 281 CURVE",
"411 464 LINE",
"408 483 OFFCURVE",
"368 499 OFFCURVE",
"326 499 CURVE SMOOTH",
"203 499 OFFCURVE",
"171 364 OFFCURVE",
"171 248 CURVE"
);
},
{
closed = 1;
nodes = (
"235 0 LINE",
"235 500 LINE",
"27 500 LINE",
"27 0 LINE"
);
}
);
width = 403;
}
);
unicode = 0072;
},
{
color = 1;
glyphname = s;
lastChange = "2016-10-19 06:30:09 +0000";
layers = (
{
layerId = "262880E7-CFE1-4BDA-902E-E24798F3240A";
paths = (
{
closed = 1;
nodes = (
"315 -4 OFFCURVE",
"381 49 OFFCURVE",
"381 126 CURVE SMOOTH",
"381 214 OFFCURVE",
"297 236 OFFCURVE",
"217 264 CURVE SMOOTH",
"128 295 OFFCURVE",
"79 311 OFFCURVE",
"79 378 CURVE SMOOTH",
"79 442 OFFCURVE",
"135 483 OFFCURVE",
"218 483 CURVE SMOOTH",
"301 483 OFFCURVE",
"357 438 OFFCURVE",
"357 369 CURVE SMOOTH",
"357 368 LINE",
"379 368 LINE",
"379 369 LINE SMOOTH",
"379 449 OFFCURVE",
"315 504 OFFCURVE",
"218 504 CURVE SMOOTH",
"121 504 OFFCURVE",
"57 453 OFFCURVE",
"57 378 CURVE SMOOTH",
"57 290 OFFCURVE",
"128 272 OFFCURVE",
"213 242 CURVE SMOOTH",
"289 215 OFFCURVE",
"359 196 OFFCURVE",
"359 126 CURVE SMOOTH",
"359 61 OFFCURVE",
"302 17 OFFCURVE",
"216 17 CURVE SMOOTH",
"133 17 OFFCURVE",
"77 61 OFFCURVE",
"77 126 CURVE SMOOTH",
"77 127 LINE",
"55 127 LINE",
"55 126 LINE SMOOTH",
"55 49 OFFCURVE",
"119 -4 OFFCURVE",
"216 -4 CURVE SMOOTH"
);
}
);
width = 437;
},
{
layerId = "4F25946F-63AC-42D6-8D55-01CF6A99025B";
paths = (
{
closed = 1;
nodes = (
"389 -10 OFFCURVE",
"481 49 OFFCURVE",
"481 145 CURVE SMOOTH",
"481 214 OFFCURVE",
"433 267 OFFCURVE",
"355 290 CURVE SMOOTH",
"295 308 OFFCURVE",
"213 306 OFFCURVE",
"213 339 CURVE SMOOTH",
"213 352 OFFCURVE",
"226 361 OFFCURVE",
"247 361 CURVE SMOOTH",
"266 361 OFFCURVE",
"282 353 OFFCURVE",
"282 332 CURVE",
"283 332 LINE",
"477 332 LINE",
"477 332 LINE",
"471 441 OFFCURVE",
"390 510 OFFCURVE",
"239 510 CURVE SMOOTH",
"102 510 OFFCURVE",
"10 453 OFFCURVE",
"10 361 CURVE SMOOTH",
"10 291 OFFCURVE",
"62 233 OFFCURVE",
"148 209 CURVE SMOOTH",
"213 191 OFFCURVE",
"276 198 OFFCURVE",
"276 168 CURVE SMOOTH",
"276 156 OFFCURVE",
"267 142 OFFCURVE",
"245 142 CURVE SMOOTH",
"218 142 OFFCURVE",
"208 162 OFFCURVE",
"208 175 CURVE SMOOTH",
"208 175 LINE",
"9 178 LINE",
"9 178 LINE",
"9 61 OFFCURVE",
"97 -10 OFFCURVE",
"250 -10 CURVE SMOOTH"
);
}
);
width = 497;
},
{
associatedMasterId = "262880E7-CFE1-4BDA-902E-E24798F3240A";
layerId = "677A5083-0B4E-4805-9AE1-F115960A3564";
name = "Semi Bold{101, 100}";
paths = (
{
closed = 1;
nodes = (
"365 -10 OFFCURVE",
"436 48 OFFCURVE",
"436 133 CURVE SMOOTH",
"436 201 OFFCURVE",
"390 252 OFFCURVE",
"297 286 CURVE SMOOTH",
"206 319 OFFCURVE",
"170 333 OFFCURVE",
"170 369 CURVE SMOOTH",
"170 401 OFFCURVE",
"198 421 OFFCURVE",
"244 421 CURVE SMOOTH",
"294 421 OFFCURVE",
"324 397 OFFCURVE",
"324 358 CURVE SMOOTH",
"324 352 LINE",
"431 352 LINE",
"431 358 LINE SMOOTH",
"431 452 OFFCURVE",
"360 510 OFFCURVE",
"246 510 CURVE SMOOTH",
"131 510 OFFCURVE",
"61 451 OFFCURVE",
"61 369 CURVE SMOOTH",
"61 295 OFFCURVE",
"117 248 OFFCURVE",
"197 219 CURVE SMOOTH",
"282 188 OFFCURVE",
"323 173 OFFCURVE",
"323 135 CURVE SMOOTH",
"323 103 OFFCURVE",
"293 78 OFFCURVE",
"246 78 CURVE SMOOTH",
"198 78 OFFCURVE",
"169 103 OFFCURVE",
"169 137 CURVE SMOOTH",
"169 146 LINE",
"59 146 LINE",
"59 141 LINE SMOOTH",
"59 47 OFFCURVE",
"133 -10 OFFCURVE",
"248 -10 CURVE SMOOTH"
);
}
);
width = 494;
}
);
unicode = 0073;
},
{
color = 1;
glyphname = t;
lastChange = "2016-10-19 06:30:08 +0000";
layers = (
{
layerId = "262880E7-CFE1-4BDA-902E-E24798F3240A";
paths = (
{
closed = 1;
nodes = (
"248 0 LINE",
"248 21 LINE",
"224 21 LINE SMOOTH",
"143 21 OFFCURVE",
"120 57 OFFCURVE",
"120 153 CURVE SMOOTH",
"120 610 LINE",
"98 610 LINE",
"98 153 LINE SMOOTH",
"98 43 OFFCURVE",
"130 0 OFFCURVE",
"224 0 CURVE SMOOTH"
);
},
{
closed = 1;
nodes = (
"234 479 LINE",
"234 500 LINE",
"34 500 LINE",
"34 479 LINE"
);
}
);
width = 247;
},
{
layerId = "4F25946F-63AC-42D6-8D55-01CF6A99025B";
paths = (
{
closed = 1;
nodes = (
"293 4 LINE",
"299 184 LINE",
"296 184 LINE",
"258 180 OFFCURVE",
"236 175 OFFCURVE",
"236 206 CURVE SMOOTH",
"236 700 LINE",
"42 700 LINE",
"42 166 LINE SMOOTH",
"42 6 OFFCURVE",
"105 -21 OFFCURVE",
"287 4 CURVE"
);
},
{
closed = 1;
nodes = (
"316 326 LINE",
"316 500 LINE",
"-2 500 LINE",
"-2 326 LINE"
);
}
);
width = 319;
}
);
unicode = 0074;
},
{
color = 1;
glyphname = u;
lastChange = "2016-10-19 06:30:09 +0000";
layers = (
{
layerId = "262880E7-CFE1-4BDA-902E-E24798F3240A";
paths = (
{
closed = 1;
nodes = (
"349 -3 OFFCURVE",
"407 57 OFFCURVE",
"407 157 CURVE",
"390 157 LINE",
"390 70 OFFCURVE",
"335 18 OFFCURVE",
"248 18 CURVE SMOOTH",
"163 18 OFFCURVE",
"112 67 OFFCURVE",
"112 154 CURVE SMOOTH",
"112 500 LINE",
"90 500 LINE",
"90 164 LINE SMOOTH",
"90 58 OFFCURVE",
"149 -3 OFFCURVE",
"243 -3 CURVE SMOOTH"
);
},
{
closed = 1;
nodes = (
"412 0 LINE",
"412 500 LINE",
"390 500 LINE",
"390 0 LINE"
);
}
);
width = 510;
},
{
layerId = "4F25946F-63AC-42D6-8D55-01CF6A99025B";
paths = (
{
closed = 1;
nodes = (
"337 -2 OFFCURVE",
"384 96 OFFCURVE",
"384 196 CURVE",
"319 188 LINE",
"319 165 OFFCURVE",
"301 150 OFFCURVE",
"275 150 CURVE SMOOTH",
"249 150 OFFCURVE",
"232 165 OFFCURVE",
"232 188 CURVE SMOOTH",
"232 500 LINE",
"24 500 LINE",
"24 150 LINE SMOOTH",
"24 49 OFFCURVE",
"73 -2 OFFCURVE",
"184 -2 CURVE SMOOTH"
);
},
{
closed = 1;
nodes = (
"527 0 LINE",
"527 500 LINE",
"319 500 LINE",
"319 0 LINE"
);
}
);
width = 554;
},
{
associatedMasterId = "4F25946F-63AC-42D6-8D55-01CF6A99025B";
layerId = "47FA07B0-C6A0-4AEE-ADEB-F55ADBF433D4";
name = "Medium{91,100}";
paths = (
{
closed = 1;
nodes = (
"343 -3 OFFCURVE",
"421 67 OFFCURVE",
"421 168 CURVE",
"364 169 LINE",
"364 106 OFFCURVE",
"323 68 OFFCURVE",
"259 68 CURVE SMOOTH",
"196 68 OFFCURVE",
"158 104 OFFCURVE",
"158 167 CURVE SMOOTH",
"158 500 LINE",
"66 500 LINE",
"66 159 LINE SMOOTH",
"66 56 OFFCURVE",
"119 -3 OFFCURVE",
"226 -3 CURVE SMOOTH"
);
},
{
closed = 1;
nodes = (
"456 0 LINE",
"456 500 LINE",
"364 500 LINE",
"364 0 LINE"
);
}
);
width = 527;
}
);
unicode = 0075;
},
{
color = 1;
glyphname = v;
lastChange = "2016-10-19 06:30:09 +0000";
layers = (
{
layerId = "262880E7-CFE1-4BDA-902E-E24798F3240A";
paths = (
{
closed = 1;
nodes = (
"203 0 LINE",
"368 500 LINE",
"346 500 LINE",
"192 35 LINE",
"38 500 LINE",
"16 500 LINE",
"181 0 LINE"
);
}
);
width = 384;
},
{
layerId = "4F25946F-63AC-42D6-8D55-01CF6A99025B";
paths = (
{
closed = 1;
nodes = (
"359 0 LINE",
"523 500 LINE",
"312 500 LINE",
"263 257 LINE",
"214 500 LINE",
"3 500 LINE",
"167 0 LINE"
);
}
);
width = 526;
},
{
associatedMasterId = "262880E7-CFE1-4BDA-902E-E24798F3240A";
layerId = "30C42329-3409-4879-A8EC-0B65B1A31C66";
name = "Medium { 91, 100}";
paths = (
{
closed = 1;
nodes = (
"285 0 LINE",
"442 500 LINE",
"349 500 LINE",
"241 129 LINE",
"133 500 LINE",
"41 500 LINE",
"198 0 LINE"
);
}
);
width = 483;
}
);
unicode = 0076;
},
{
color = 1;
glyphname = w;
lastChange = "2016-10-19 06:30:09 +0000";
layers = (
{
layerId = "262880E7-CFE1-4BDA-902E-E24798F3240A";
paths = (
{
closed = 1;
nodes = (
"188 0 LINE",
"312 461 LINE",
"436 0 LINE",
"458 0 LINE",
"594 500 LINE",
"572 500 LINE",
"448 27 LINE",
"321 500 LINE",
"303 500 LINE",
"178 27 LINE",
"53 500 LINE",
"31 500 LINE",
"166 0 LINE"
);
}
);
width = 624;
},
{
layerId = "4F25946F-63AC-42D6-8D55-01CF6A99025B";
paths = (
{
closed = 1;
nodes = (
"319 0 LINE",
"352 240 LINE",
"389 0 LINE",
"586 0 LINE",
"706 500 LINE",
"512 500 LINE",
"479 287 LINE",
"439 500 LINE",
"270 500 LINE",
"231 287 LINE",
"196 500 LINE",
"3 500 LINE",
"122 0 LINE"
);
}
);
width = 709;
}
);
unicode = 0077;
},
{
color = 1;
glyphname = x;
lastChange = "2016-10-19 06:30:08 +0000";
layers = (
{
layerId = "262880E7-CFE1-4BDA-902E-E24798F3240A";
paths = (
{
closed = 1;
nodes = (
"345 500 LINE",
"191 266 LINE",
"37 500 LINE",
"15 500 LINE",
"181 250 LINE",
"15 0 LINE",
"37 0 LINE",
"191 234 LINE",
"345 0 LINE",
"367 0 LINE",
"201 250 LINE",
"367 500 LINE"
);
}
);
width = 382;
},
{
layerId = "4F25946F-63AC-42D6-8D55-01CF6A99025B";
paths = (
{
closed = 1;
nodes = (
"314 500 LINE",
"269 411 LINE",
"225 500 LINE",
"3 500 LINE",
"161 250 LINE",
"3 0 LINE",
"225 0 LINE",
"269 89 LINE",
"314 0 LINE",
"535 0 LINE",
"378 250 LINE",
"535 500 LINE"
);
}
);
width = 538;
},
{
associatedMasterId = "262880E7-CFE1-4BDA-902E-E24798F3240A";
layerId = "A7F0FF68-370D-4ABA-A088-97B4F33DE289";
name = "Light Oct 15 16, 02:53";
paths = (
{
closed = 1;
nodes = (
"368 501 LINE",
"390 501 LINE",
"60 -1 LINE",
"38 -1 LINE"
);
},
{
closed = 1;
nodes = (
"38 501 LINE",
"60 501 LINE",
"390 -1 LINE",
"368 -1 LINE"
);
}
);
width = 428;
},
{
associatedMasterId = "4F25946F-63AC-42D6-8D55-01CF6A99025B";
layerId = "C8E6816F-D14D-432C-92C0-4654658DD355";
name = "Bold Oct 15 16, 02:53";
paths = (
{
closed = 1;
nodes = (
"306 500 LINE",
"527 500 LINE",
"217 0 LINE",
"-5 0 LINE"
);
},
{
closed = 1;
nodes = (
"-5 500 LINE",
"217 500 LINE",
"527 0 LINE",
"306 0 LINE"
);
}
);
width = 522;
}
);
unicode = 0078;
},
{
color = 1;
glyphname = y;
lastChange = "2016-10-19 06:30:08 +0000";
layers = (
{
layerId = "262880E7-CFE1-4BDA-902E-E24798F3240A";
paths = (
{
closed = 1;
nodes = (
"193 27 LINE",
"38 500 LINE",
"16 500 LINE",
"183 0 LINE",
"161 -67 LINE SMOOTH",
"127 -169 OFFCURVE",
"104 -190 OFFCURVE",
"41 -190 CURVE",
"41 -211 LINE",
"116 -211 OFFCURVE",
"145 -183 OFFCURVE",
"181 -73 CURVE SMOOTH",
"370 500 LINE",
"348 500 LINE"
);
}
);
width = 387;
},
{
layerId = "4F25946F-63AC-42D6-8D55-01CF6A99025B";
paths = (
{
closed = 1;
nodes = (
"257 321 LINE",
"211 500 LINE",
"3 500 LINE",
"166 106 LINE",
"158 82 LINE SMOOTH",
"145 42 OFFCURVE",
"130 30 OFFCURVE",
"72 30 CURVE",
"72 -128 LINE",
"238 -128 OFFCURVE",
"296 -72 OFFCURVE",
"336 35 CURVE SMOOTH",
"511 500 LINE",
"303 500 LINE"
);
}
);
width = 514;
}
);
unicode = 0079;
},
{
color = 1;
glyphname = z;
lastChange = "2016-10-19 06:30:09 +0000";
layers = (
{
layerId = "262880E7-CFE1-4BDA-902E-E24798F3240A";
paths = (
{
closed = 1;
nodes = (
"322 0 LINE",
"322 21 LINE",
"29 21 LINE",
"332 477 LINE",
"332 498 LINE",
"10 498 LINE",
"10 477 LINE",
"309 477 LINE",
"6 21 LINE",
"6 0 LINE"
);
}
);
width = 337;
},
{
layerId = "4F25946F-63AC-42D6-8D55-01CF6A99025B";
paths = (
{
closed = 1;
nodes = (
"420 10 LINE",
"420 157 LINE",
"245 157 LINE",
"424 348 LINE",
"424 496 LINE",
"3 496 LINE",
"3 348 LINE",
"191 347 LINE",
"4 157 LINE",
"3 10 LINE"
);
}
);
width = 427;
},
{
associatedMasterId = "4F25946F-63AC-42D6-8D55-01CF6A99025B";
layerId = "516F1C78-99C1-4D19-A6A1-804BC5CB958E";
name = "Demibold {119,100}";
paths = (
{
closed = 1;
nodes = (
"389 6 LINE",
"389 113 LINE",
"183 113 LINE",
"391 386 LINE",
"391 497 LINE",
"32 497 LINE",
"32 386 LINE",
"255 386 LINE",
"42 113 LINE",
"42 6 LINE"
);
}
);
width = 441;
}
);
unicode = 007A;
},
{
color = 1;
glyphname = zero;
lastChange = "2016-10-19 06:30:08 +0000";
layers = (
{
layerId = "262880E7-CFE1-4BDA-902E-E24798F3240A";
paths = (
{
closed = 1;
nodes = (
"374 -9 OFFCURVE",
"429 45 OFFCURVE",
"429 150 CURVE SMOOTH",
"429 550 LINE SMOOTH",
"429 655 OFFCURVE",
"374 709 OFFCURVE",
"269 709 CURVE SMOOTH",
"164 709 OFFCURVE",
"109 655 OFFCURVE",
"109 550 CURVE SMOOTH",
"109 150 LINE SMOOTH",
"109 45 OFFCURVE",
"164 -9 OFFCURVE",
"269 -9 CURVE SMOOTH"
);
},
{
closed = 1;
nodes = (
"178 11 OFFCURVE",
"131 58 OFFCURVE",
"131 150 CURVE SMOOTH",
"131 550 LINE SMOOTH",
"131 642 OFFCURVE",
"178 690 OFFCURVE",
"269 690 CURVE SMOOTH",
"360 690 OFFCURVE",
"407 642 OFFCURVE",
"407 550 CURVE SMOOTH",
"407 150 LINE SMOOTH",
"407 58 OFFCURVE",
"360 11 OFFCURVE",
"269 11 CURVE SMOOTH"
);
}
);
width = 538;
},
{
layerId = "4F25946F-63AC-42D6-8D55-01CF6A99025B";
paths = (
{
closed = 1;
nodes = (
"467 -10 OFFCURVE",
"555 73 OFFCURVE",
"555 233 CURVE SMOOTH",
"555 467 LINE SMOOTH",
"555 627 OFFCURVE",
"467 710 OFFCURVE",
"295 710 CURVE SMOOTH",
"123 710 OFFCURVE",
"35 627 OFFCURVE",
"35 467 CURVE SMOOTH",
"35 233 LINE SMOOTH",
"35 73 OFFCURVE",
"123 -10 OFFCURVE",
"295 -10 CURVE SMOOTH"
);
},
{
closed = 1;
nodes = (
"266 174 OFFCURVE",
"247 194 OFFCURVE",
"247 223 CURVE SMOOTH",
"247 477 LINE SMOOTH",
"247 506 OFFCURVE",
"266 526 OFFCURVE",
"295 526 CURVE SMOOTH",
"324 526 OFFCURVE",
"343 506 OFFCURVE",
"343 477 CURVE SMOOTH",
"343 223 LINE SMOOTH",
"343 194 OFFCURVE",
"324 174 OFFCURVE",
"295 174 CURVE SMOOTH"
);
}
);
width = 590;
}
);
unicode = 0030;
},
{
color = 1;
glyphname = one;
lastChange = "2016-10-19 06:30:08 +0000";
layers = (
{
layerId = "4F25946F-63AC-42D6-8D55-01CF6A99025B";
paths = (
{
closed = 1;
nodes = (
"288 0 LINE",
"288 700 LINE",
"76 700 LINE",
"76 0 LINE"
);
},
{
closed = 1;
nodes = (
"13 512 LINE",
"76 512 LINE",
"76 700 LINE",
"13 674 LINE"
);
}
);
width = 346;
},
{
layerId = "262880E7-CFE1-4BDA-902E-E24798F3240A";
paths = (
{
closed = 1;
nodes = (
"142 0 LINE",
"142 700 LINE",
"120 700 LINE",
"120 0 LINE"
);
},
{
closed = 1;
nodes = (
"79 647 LINE",
"120 679 LINE",
"120 700 LINE",
"79 668 LINE"
);
}
);
width = 260;
}
);
unicode = 0031;
},
{
color = 1;
glyphname = two;
lastChange = "2016-10-19 06:30:09 +0000";
layers = (
{
layerId = "4F25946F-63AC-42D6-8D55-01CF6A99025B";
paths = (
{
closed = 1;
nodes = (
"518 0 LINE",
"518 188 LINE",
"271 188 LINE",
"502 447 LINE",
"519 475 OFFCURVE",
"530 500 OFFCURVE",
"530 534 CURVE SMOOTH",
"530 633 OFFCURVE",
"435 700 OFFCURVE",
"278 700 CURVE SMOOTH",
"119 700 OFFCURVE",
"18 631 OFFCURVE",
"18 519 CURVE",
"18 454 LINE",
"226 455 LINE",
"226 481 LINE",
"226 506 OFFCURVE",
"243 523 OFFCURVE",
"268 523 CURVE SMOOTH",
"296 523 OFFCURVE",
"308 502 OFFCURVE",
"308 489 CURVE SMOOTH",
"308 474 OFFCURVE",
"294 455 OFFCURVE",
"269 426 CURVE",
"21 171 LINE",
"21 0 LINE"
);
}
);
width = 545;
},
{
layerId = "262880E7-CFE1-4BDA-902E-E24798F3240A";
paths = (
{
closed = 1;
nodes = (
"375 0 LINE",
"375 21 LINE",
"72 21 LINE",
"312 364 LINE SMOOTH",
"350 419 OFFCURVE",
"374 470 OFFCURVE",
"374 530 CURVE SMOOTH",
"374 615 OFFCURVE",
"325 705 OFFCURVE",
"211 705 CURVE SMOOTH",
"106 705 OFFCURVE",
"43 635 OFFCURVE",
"43 500 CURVE",
"43 479 LINE",
"65 479 LINE",
"65 498 LINE SMOOTH",
"65 616 OFFCURVE",
"119 684 OFFCURVE",
"210 684 CURVE SMOOTH",
"298 684 OFFCURVE",
"352 620 OFFCURVE",
"352 528 CURVE SMOOTH",
"352 476 OFFCURVE",
"335 434 OFFCURVE",
"307 395 CURVE SMOOTH",
"43 21 LINE",
"43 0 LINE"
);
}
);
width = 423;
}
);
unicode = 0032;
},
{
color = 1;
glyphname = eight;
lastChange = "2016-10-19 06:30:08 +0000";
layers = (
{
layerId = "262880E7-CFE1-4BDA-902E-E24798F3240A";
paths = (
{
closed = 1;
nodes = (
"365 364 OFFCURVE",
"420 418 OFFCURVE",
"420 523 CURVE SMOOTH",
"420 548 LINE SMOOTH",
"420 653 OFFCURVE",
"365 707 OFFCURVE",
"260 707 CURVE SMOOTH",
"155 707 OFFCURVE",
"100 653 OFFCURVE",
"100 548 CURVE SMOOTH",
"100 523 LINE SMOOTH",
"100 418 OFFCURVE",
"155 364 OFFCURVE",
"260 364 CURVE SMOOTH"
);
},
{
closed = 1;
nodes = (
"169 384 OFFCURVE",
"122 431 OFFCURVE",
"122 523 CURVE SMOOTH",
"122 548 LINE SMOOTH",
"122 640 OFFCURVE",
"169 688 OFFCURVE",
"260 688 CURVE SMOOTH",
"351 688 OFFCURVE",
"398 640 OFFCURVE",
"398 548 CURVE SMOOTH",
"398 523 LINE SMOOTH",
"398 431 OFFCURVE",
"351 384 OFFCURVE",
"260 384 CURVE SMOOTH"
);
},
{
closed = 1;
nodes = (
"365 -18 OFFCURVE",
"420 36 OFFCURVE",
"420 141 CURVE SMOOTH",
"420 225 LINE SMOOTH",
"420 330 OFFCURVE",
"365 384 OFFCURVE",
"260 384 CURVE SMOOTH",
"155 384 OFFCURVE",
"100 330 OFFCURVE",
"100 225 CURVE SMOOTH",
"100 141 LINE SMOOTH",
"100 36 OFFCURVE",
"155 -18 OFFCURVE",
"260 -18 CURVE SMOOTH"
);
},
{
closed = 1;
nodes = (
"169 2 OFFCURVE",
"122 49 OFFCURVE",
"122 141 CURVE SMOOTH",
"122 225 LINE SMOOTH",
"122 317 OFFCURVE",
"169 365 OFFCURVE",
"260 365 CURVE SMOOTH",
"351 365 OFFCURVE",
"398 317 OFFCURVE",
"398 225 CURVE SMOOTH",
"398 141 LINE SMOOTH",
"398 49 OFFCURVE",
"351 2 OFFCURVE",
"260 2 CURVE SMOOTH"
);
}
);
width = 520;
},
{
layerId = "4F25946F-63AC-42D6-8D55-01CF6A99025B";
paths = (
{
closed = 1;
nodes = (
"321 337 OFFCURVE",
"512 343 OFFCURVE",
"512 498 CURVE",
"512 507 LINE",
"510 641 OFFCURVE",
"429 711 OFFCURVE",
"276 711 CURVE",
"122 711 OFFCURVE",
"42 650 OFFCURVE",
"42 516 CURVE",
"42 507 LINE",
"43 344 OFFCURVE",
"223 337 OFFCURVE",
"276 337 CURVE SMOOTH"
);
},
{
closed = 1;
nodes = (
"250 458 OFFCURVE",
"233 474 OFFCURVE",
"233 499 CURVE SMOOTH",
"233 533 LINE SMOOTH",
"233 558 OFFCURVE",
"250 574 OFFCURVE",
"276 574 CURVE SMOOTH",
"302 574 OFFCURVE",
"320 558 OFFCURVE",
"320 533 CURVE SMOOTH",
"320 499 LINE SMOOTH",
"320 474 OFFCURVE",
"302 458 OFFCURVE",
"276 458 CURVE SMOOTH"
);
},
{
closed = 1;
nodes = (
"451 -5 OFFCURVE",
"532 77 OFFCURVE",
"532 202 CURVE",
"532 231 LINE",
"532 324 OFFCURVE",
"441 455 OFFCURVE",
"277 401 CURVE",
"119 455 OFFCURVE",
"22 316 OFFCURVE",
"22 231 CURVE",
"22 202 LINE",
"23 69 OFFCURVE",
"109 -5 OFFCURVE",
"276 -5 CURVE SMOOTH"
);
},
{
closed = 1;
nodes = (
"250 139 OFFCURVE",
"233 155 OFFCURVE",
"233 180 CURVE SMOOTH",
"233 258 LINE SMOOTH",
"233 283 OFFCURVE",
"250 299 OFFCURVE",
"276 299 CURVE",
"302 299 OFFCURVE",
"320 283 OFFCURVE",
"320 258 CURVE SMOOTH",
"320 180 LINE SMOOTH",
"320 155 OFFCURVE",
"302 139 OFFCURVE",
"276 139 CURVE SMOOTH"
);
}
);
width = 554;
},
{
associatedMasterId = "4F25946F-63AC-42D6-8D55-01CF6A99025B";
layerId = "9541491C-EA7C-4850-9E65-38E203544E44";
name = "Medium {91,100}";
paths = (
{
closed = 1;
nodes = (
"378 354 OFFCURVE",
"448 413 OFFCURVE",
"448 514 CURVE SMOOTH",
"448 532 LINE SMOOTH",
"447 644 OFFCURVE",
"377 709 OFFCURVE",
"259 709 CURVE SMOOTH",
"141 709 OFFCURVE",
"71 645 OFFCURVE",
"71 536 CURVE SMOOTH",
"71 517 LINE SMOOTH",
"71 414 OFFCURVE",
"141 354 OFFCURVE",
"259 354 CURVE SMOOTH"
);
},
{
closed = 1;
nodes = (
"195 416 OFFCURVE",
"157 453 OFFCURVE",
"157 517 CURVE SMOOTH",
"157 546 LINE SMOOTH",
"157 610 OFFCURVE",
"195 648 OFFCURVE",
"259 648 CURVE SMOOTH",
"323 648 OFFCURVE",
"361 610 OFFCURVE",
"361 546 CURVE SMOOTH",
"361 517 LINE SMOOTH",
"361 453 OFFCURVE",
"323 416 OFFCURVE",
"259 416 CURVE SMOOTH"
);
},
{
closed = 1;
nodes = (
"383 -13 OFFCURVE",
"456 52 OFFCURVE",
"456 164 CURVE SMOOTH",
"456 227 LINE SMOOTH",
"456 350 OFFCURVE",
"383 410 OFFCURVE",
"260 390 CURVE SMOOTH",
"136 411 OFFCURVE",
"63 350 OFFCURVE",
"63 227 CURVE SMOOTH",
"63 164 LINE SMOOTH",
"64 52 OFFCURVE",
"136 -13 OFFCURVE",
"259 -13 CURVE SMOOTH"
);
},
{
closed = 1;
nodes = (
"195 54 OFFCURVE",
"157 92 OFFCURVE",
"157 156 CURVE SMOOTH",
"157 238 LINE SMOOTH",
"157 302 OFFCURVE",
"195 340 OFFCURVE",
"259 340 CURVE SMOOTH",
"323 340 OFFCURVE",
"361 302 OFFCURVE",
"361 238 CURVE SMOOTH",
"361 156 LINE SMOOTH",
"361 92 OFFCURVE",
"323 54 OFFCURVE",
"259 54 CURVE SMOOTH"
);
}
);
width = 519;
}
);
unicode = 0038;
},
{
color = 1;
glyphname = colon;
lastChange = "2016-10-19 06:30:08 +0000";
layers = (
{
layerId = "262880E7-CFE1-4BDA-902E-E24798F3240A";
paths = (
{
closed = 1;
nodes = (
"181 37 OFFCURVE",
"200 55 OFFCURVE",
"200 78 CURVE SMOOTH",
"200 100 OFFCURVE",
"181 118 OFFCURVE",
"159 118 CURVE SMOOTH",
"137 118 OFFCURVE",
"118 100 OFFCURVE",
"118 78 CURVE SMOOTH",
"118 55 OFFCURVE",
"136 37 OFFCURVE",
"159 37 CURVE SMOOTH"
);
},
{
closed = 1;
nodes = (
"181 350 OFFCURVE",
"200 368 OFFCURVE",
"200 391 CURVE SMOOTH",
"200 413 OFFCURVE",
"181 431 OFFCURVE",
"159 431 CURVE SMOOTH",
"137 431 OFFCURVE",
"118 413 OFFCURVE",
"118 391 CURVE SMOOTH",
"118 368 OFFCURVE",
"136 350 OFFCURVE",
"159 350 CURVE SMOOTH"
);
}
);
width = 318;
},
{
layerId = "4F25946F-63AC-42D6-8D55-01CF6A99025B";
paths = (
{
closed = 1;
nodes = (
"187 -6 OFFCURVE",
"236 40 OFFCURVE",
"236 99 CURVE",
"236 156 OFFCURVE",
"187 202 OFFCURVE",
"130 202 CURVE SMOOTH",
"73 202 OFFCURVE",
"24 156 OFFCURVE",
"24 99 CURVE SMOOTH",
"24 40 OFFCURVE",
"71 -6 OFFCURVE",
"130 -6 CURVE SMOOTH"
);
},
{
closed = 1;
nodes = (
"187 288 OFFCURVE",
"236 334 OFFCURVE",
"236 393 CURVE",
"236 450 OFFCURVE",
"187 496 OFFCURVE",
"130 496 CURVE SMOOTH",
"73 496 OFFCURVE",
"24 450 OFFCURVE",
"24 393 CURVE SMOOTH",
"24 334 OFFCURVE",
"71 288 OFFCURVE",
"130 288 CURVE SMOOTH"
);
}
);
width = 260;
}
);
unicode = 003A;
},
{
color = 1;
glyphname = comma;
lastChange = "2016-10-19 06:30:09 +0000";
layers = (
{
layerId = "262880E7-CFE1-4BDA-902E-E24798F3240A";
paths = (
{
closed = 1;
nodes = (
"187 153 LINE",
"165 153 LINE",
"110 -66 LINE",
"132 -66 LINE"
);
}
);
width = 298;
},
{
layerId = "4F25946F-63AC-42D6-8D55-01CF6A99025B";
paths = (
{
closed = 1;
nodes = (
"223 143 LINE",
"43 142 LINE",
"24 -86 LINE",
"172 -86 LINE"
);
}
);
width = 247;
}
);
unicode = 002C;
},
{
color = 1;
glyphname = exclam;
lastChange = "2016-10-19 06:30:08 +0000";
layers = (
{
layerId = "262880E7-CFE1-4BDA-902E-E24798F3240A";
paths = (
{
closed = 1;
nodes = (
"163 220 LINE",
"163 700 LINE",
"141 700 LINE",
"141 220 LINE"
);
},
{
closed = 1;
nodes = (
"171 5 OFFCURVE",
"190 23 OFFCURVE",
"190 46 CURVE SMOOTH",
"190 68 OFFCURVE",
"171 86 OFFCURVE",
"149 86 CURVE SMOOTH",
"127 86 OFFCURVE",
"108 68 OFFCURVE",
"108 46 CURVE SMOOTH",
"108 23 OFFCURVE",
"126 5 OFFCURVE",
"149 5 CURVE SMOOTH"
);
}
);
width = 302;
},
{
layerId = "4F25946F-63AC-42D6-8D55-01CF6A99025B";
paths = (
{
closed = 1;
nodes = (
"229 250 LINE",
"259 700 LINE",
"51 700 LINE",
"81 250 LINE"
);
},
{
closed = 1;
nodes = (
"210 -6 OFFCURVE",
"259 40 OFFCURVE",
"259 99 CURVE",
"259 156 OFFCURVE",
"210 202 OFFCURVE",
"153 202 CURVE SMOOTH",
"96 202 OFFCURVE",
"47 156 OFFCURVE",
"47 99 CURVE SMOOTH",
"47 40 OFFCURVE",
"94 -6 OFFCURVE",
"153 -6 CURVE SMOOTH"
);
}
);
width = 309;
}
);
unicode = 0021;
},
{
color = 1;
glyphname = period;
lastChange = "2016-10-19 06:30:09 +0000";
layers = (
{
layerId = "262880E7-CFE1-4BDA-902E-E24798F3240A";
paths = (
{
closed = 1;
nodes = (
"192 5 OFFCURVE",
"211 23 OFFCURVE",
"211 46 CURVE SMOOTH",
"211 68 OFFCURVE",
"192 86 OFFCURVE",
"170 86 CURVE SMOOTH",
"148 86 OFFCURVE",
"129 68 OFFCURVE",
"129 46 CURVE SMOOTH",
"129 23 OFFCURVE",
"147 5 OFFCURVE",
"170 5 CURVE SMOOTH"
);
}
);
width = 340;
},
{
layerId = "4F25946F-63AC-42D6-8D55-01CF6A99025B";
paths = (
{
closed = 1;
nodes = (
"184 -6 OFFCURVE",
"233 40 OFFCURVE",
"233 99 CURVE",
"233 156 OFFCURVE",
"184 202 OFFCURVE",
"127 202 CURVE SMOOTH",
"70 202 OFFCURVE",
"21 156 OFFCURVE",
"21 99 CURVE SMOOTH",
"21 40 OFFCURVE",
"68 -6 OFFCURVE",
"127 -6 CURVE SMOOTH"
);
}
);
width = 254;
}
);
unicode = 002E;
},
{
color = 1;
glyphname = question;
lastChange = "2016-10-19 06:30:09 +0000";
layers = (
{
layerId = "4F25946F-63AC-42D6-8D55-01CF6A99025B";
paths = (
{
closed = 1;
nodes = (
"338 223 LINE",
"338 238 OFFCURVE",
"338 256 OFFCURVE",
"338 262 CURVE SMOOTH",
"338 330 OFFCURVE",
"494 329 OFFCURVE",
"494 494 CURVE SMOOTH",
"494 629 OFFCURVE",
"396 710 OFFCURVE",
"250 710 CURVE SMOOTH",
"95 710 OFFCURVE",
"-8 618 OFFCURVE",
"-8 479 CURVE SMOOTH",
"-8 474 LINE",
"204 464 LINE",
"204 479 LINE SMOOTH",
"204 502 OFFCURVE",
"220 518 OFFCURVE",
"244 518 CURVE SMOOTH",
"265 518 OFFCURVE",
"279 506 OFFCURVE",
"279 487 CURVE SMOOTH",
"279 424 OFFCURVE",
"134 423 OFFCURVE",
"134 290 CURVE SMOOTH",
"134 268 OFFCURVE",
"134 261 OFFCURVE",
"134 224 CURVE"
);
},
{
closed = 1;
nodes = (
"298 -6 OFFCURVE",
"347 40 OFFCURVE",
"347 99 CURVE",
"347 156 OFFCURVE",
"298 202 OFFCURVE",
"241 202 CURVE SMOOTH",
"184 202 OFFCURVE",
"135 156 OFFCURVE",
"135 99 CURVE SMOOTH",
"135 40 OFFCURVE",
"182 -6 OFFCURVE",
"241 -6 CURVE SMOOTH"
);
}
);
width = 497;
},
{
layerId = "262880E7-CFE1-4BDA-902E-E24798F3240A";
paths = (
{
closed = 1;
nodes = (
"227 239 LINE",
"197 243 OFFCURVE",
"182 254 OFFCURVE",
"182 275 CURVE SMOOTH",
"182 346 OFFCURVE",
"363 378 OFFCURVE",
"363 546 CURVE SMOOTH",
"363 645 OFFCURVE",
"300 709 OFFCURVE",
"206 709 CURVE SMOOTH",
"111 709 OFFCURVE",
"47 645 OFFCURVE",
"47 550 CURVE SMOOTH",
"47 500 LINE",
"69 500 LINE",
"69 550 LINE SMOOTH",
"69 633 OFFCURVE",
"124 688 OFFCURVE",
"206 688 CURVE SMOOTH",
"287 688 OFFCURVE",
"341 633 OFFCURVE",
"341 549 CURVE SMOOTH",
"341 395 OFFCURVE",
"158 364 OFFCURVE",
"158 271 CURVE SMOOTH",
"158 235 OFFCURVE",
"186 213 OFFCURVE",
"227 215 CURVE"
);
},
{
closed = 1;
nodes = (
"213 5 OFFCURVE",
"232 23 OFFCURVE",
"232 46 CURVE SMOOTH",
"232 68 OFFCURVE",
"213 86 OFFCURVE",
"191 86 CURVE SMOOTH",
"169 86 OFFCURVE",
"150 68 OFFCURVE",
"150 46 CURVE SMOOTH",
"150 23 OFFCURVE",
"168 5 OFFCURVE",
"191 5 CURVE SMOOTH"
);
}
);
width = 413;
},
{
associatedMasterId = "4F25946F-63AC-42D6-8D55-01CF6A99025B";
layerId = "E56F6CC4-F9B5-46E1-BC01-FC7B34A3882B";
name = "DemiBold {119,100}";
paths = (
{
closed = 1;
nodes = (
"344 261 LINE",
"333 262 OFFCURVE",
"324 261 OFFCURVE",
"324 276 CURVE SMOOTH",
"324 341 OFFCURVE",
"489 355 OFFCURVE",
"489 519 CURVE SMOOTH",
"489 634 OFFCURVE",
"409 710 OFFCURVE",
"286 710 CURVE SMOOTH",
"161 710 OFFCURVE",
"74 630 OFFCURVE",
"74 512 CURVE SMOOTH",
"74 486 LINE",
"198 481 LINE",
"198 512 LINE SMOOTH",
"198 562 OFFCURVE",
"231 597 OFFCURVE",
"283 597 CURVE SMOOTH",
"333 597 OFFCURVE",
"364 565 OFFCURVE",
"364 516 CURVE SMOOTH",
"364 401 OFFCURVE",
"194 408 OFFCURVE",
"194 270 CURVE SMOOTH",
"194 214 OFFCURVE",
"222 166 OFFCURVE",
"332 182 CURVE"
);
},
{
closed = 1;
nodes = (
"313 -1 OFFCURVE",
"348 32 OFFCURVE",
"348 74 CURVE SMOOTH",
"348 115 OFFCURVE",
"313 148 OFFCURVE",
"272 148 CURVE SMOOTH",
"232 148 OFFCURVE",
"197 115 OFFCURVE",
"197 74 CURVE SMOOTH",
"197 32 OFFCURVE",
"230 -1 OFFCURVE",
"272 -1 CURVE SMOOTH"
);
}
);
width = 539;
}
);
unicode = 003F;
},
{
color = 1;
glyphname = quotedbl;
lastChange = "2016-10-19 06:30:09 +0000";
layers = (
{
layerId = "262880E7-CFE1-4BDA-902E-E24798F3240A";
paths = (
{
closed = 1;
nodes = (
"269 500 LINE",
"269 692 LINE",
"247 692 LINE",
"247 500 LINE"
);
},
{
closed = 1;
nodes = (
"159 500 LINE",
"159 692 LINE",
"137 692 LINE",
"137 500 LINE"
);
}
);
width = 406;
},
{
layerId = "4F25946F-63AC-42D6-8D55-01CF6A99025B";
paths = (
{
closed = 1;
nodes = (
"525 481 LINE",
"535 693 LINE",
"333 693 LINE",
"341 481 LINE"
);
},
{
closed = 1;
nodes = (
"255 481 LINE",
"265 693 LINE",
"63 693 LINE",
"73 481 LINE"
);
}
);
width = 598;
}
);
unicode = 0022;
},
{
color = 1;
glyphname = quotesingle;
lastChange = "2016-10-19 06:30:08 +0000";
layers = (
{
layerId = "262880E7-CFE1-4BDA-902E-E24798F3240A";
paths = (
{
closed = 1;
nodes = (
"159 697 LINE",
"137 697 LINE",
"137 507 LINE",
"159 507 LINE"
);
}
);
width = 296;
},
{
layerId = "4F25946F-63AC-42D6-8D55-01CF6A99025B";
paths = (
{
closed = 1;
nodes = (
"247 699 LINE",
"63 699 LINE",
"73 452 LINE",
"237 452 LINE"
);
}
);
width = 310;
}
);
unicode = 0027;
},
{
color = 1;
glyphname = semicolon;
lastChange = "2016-10-19 06:30:09 +0000";
layers = (
{
layerId = "262880E7-CFE1-4BDA-902E-E24798F3240A";
paths = (
{
closed = 1;
nodes = (
"178 370 OFFCURVE",
"197 388 OFFCURVE",
"197 411 CURVE",
"197 433 OFFCURVE",
"178 451 OFFCURVE",
"156 451 CURVE SMOOTH",
"134 451 OFFCURVE",
"115 433 OFFCURVE",
"115 411 CURVE SMOOTH",
"115 388 OFFCURVE",
"133 370 OFFCURVE",
"156 370 CURVE SMOOTH"
);
},
{
closed = 1;
nodes = (
"136 -60 LINE",
"172 147 LINE",
"150 147 LINE",
"114 -60 LINE"
);
}
);
width = 304;
},
{
layerId = "4F25946F-63AC-42D6-8D55-01CF6A99025B";
paths = (
{
closed = 1;
nodes = (
"184 288 OFFCURVE",
"233 334 OFFCURVE",
"233 393 CURVE",
"233 450 OFFCURVE",
"184 496 OFFCURVE",
"127 496 CURVE SMOOTH",
"70 496 OFFCURVE",
"21 450 OFFCURVE",
"21 393 CURVE SMOOTH",
"21 334 OFFCURVE",
"68 288 OFFCURVE",
"127 288 CURVE SMOOTH"
);
},
{
closed = 1;
nodes = (
"168 -46 LINE",
"219 183 LINE",
"49 182 LINE",
"30 -46 LINE"
);
}
);
width = 254;
}
);
unicode = 003B;
},
{
color = 1;
glyphname = slash;
lastChange = "2016-10-19 06:30:08 +0000";
layers = (
{
layerId = "262880E7-CFE1-4BDA-902E-E24798F3240A";
paths = (
{
closed = 1;
nodes = (
"51 0 LINE",
"189 700 LINE",
"167 700 LINE",
"29 0 LINE"
);
}
);
width = 218;
},
{
layerId = "4F25946F-63AC-42D6-8D55-01CF6A99025B";
paths = (
{
closed = 1;
nodes = (
"187 0 LINE",
"325 700 LINE",
"123 700 LINE",
"-15 0 LINE"
);
}
);
width = 310;
}
);
unicode = 002F;
},
{
color = 1;
glyphname = emdash;
lastChange = "2016-10-19 06:30:09 +0000";
layers = (
{
layerId = "262880E7-CFE1-4BDA-902E-E24798F3240A";
paths = (
{
closed = 1;
nodes = (
"506 251 LINE",
"506 272 LINE",
"98 272 LINE",
"98 251 LINE"
);
}
);
width = 604;
},
{
layerId = "4F25946F-63AC-42D6-8D55-01CF6A99025B";
paths = (
{
closed = 1;
nodes = (
"648 180 LINE",
"648 368 LINE",
"48 368 LINE",
"48 180 LINE"
);
}
);
width = 696;
}
);
unicode = 2014;
},
{
color = 1;
glyphname = hyphen;
lastChange = "2016-10-19 06:30:09 +0000";
layers = (
{
layerId = "4F25946F-63AC-42D6-8D55-01CF6A99025B";
paths = (
{
closed = 1;
nodes = (
"328 180 LINE",
"328 368 LINE",
"48 368 LINE",
"48 180 LINE"
);
}
);
width = 376;
},
{
layerId = "262880E7-CFE1-4BDA-902E-E24798F3240A";
paths = (
{
closed = 1;
nodes = (
"356 251 LINE",
"356 272 LINE",
"98 272 LINE",
"98 251 LINE"
);
}
);
width = 454;
}
);
unicode = 002D;
},
{
color = 1;
glyphname = dollar;
lastChange = "2016-10-19 06:30:09 +0000";
layers = (
{
layerId = "4F25946F-63AC-42D6-8D55-01CF6A99025B";
paths = (
{
closed = 1;
nodes = (
"444 -10 OFFCURVE",
"538 74 OFFCURVE",
"538 200 CURVE SMOOTH",
"538 312 OFFCURVE",
"464 381 OFFCURVE",
"351 425 CURVE SMOOTH",
"305 443 OFFCURVE",
"252 456 OFFCURVE",
"252 489 CURVE SMOOTH",
"252 503 OFFCURVE",
"262 518 OFFCURVE",
"286 518 CURVE SMOOTH",
"312 518 OFFCURVE",
"327 501 OFFCURVE",
"327 479 CURVE SMOOTH",
"327 464 LINE",
"539 474 LINE",
"539 479 LINE SMOOTH",
"539 617 OFFCURVE",
"432 710 OFFCURVE",
"280 710 CURVE SMOOTH",
"133 710 OFFCURVE",
"37 624 OFFCURVE",
"37 498 CURVE SMOOTH",
"37 389 OFFCURVE",
"110 318 OFFCURVE",
"224 275 CURVE SMOOTH",
"266 259 OFFCURVE",
"322 245 OFFCURVE",
"322 214 CURVE SMOOTH",
"322 201 OFFCURVE",
"313 182 OFFCURVE",
"287 182 CURVE SMOOTH",
"263 182 OFFCURVE",
"248 199 OFFCURVE",
"248 231 CURVE SMOOTH",
"248 236 LINE",
"25 226 LINE",
"25 221 LINE SMOOTH",
"25 83 OFFCURVE",
"131 -10 OFFCURVE",
"291 -10 CURVE SMOOTH"
);
},
{
closed = 1;
nodes = (
"362 -53 LINE",
"362 93 LINE",
"241 93 LINE",
"241 -53 LINE"
);
},
{
closed = 1;
nodes = (
"359 599 LINE",
"359 745 LINE",
"238 745 LINE",
"238 599 LINE"
);
}
);
width = 569;
},
{
layerId = "262880E7-CFE1-4BDA-902E-E24798F3240A";
paths = (
{
closed = 1;
nodes = (
"349 -5 OFFCURVE",
"412 50 OFFCURVE",
"412 149 CURVE SMOOTH",
"412 255 OFFCURVE",
"339 307 OFFCURVE",
"257 361 CURVE SMOOTH",
"176 414 OFFCURVE",
"112 457 OFFCURVE",
"112 550 CURVE SMOOTH",
"112 634 OFFCURVE",
"164 684 OFFCURVE",
"248 684 CURVE SMOOTH",
"332 684 OFFCURVE",
"384 635 OFFCURVE",
"384 548 CURVE SMOOTH",
"384 500 LINE",
"406 500 LINE",
"406 550 LINE SMOOTH",
"406 650 OFFCURVE",
"346 705 OFFCURVE",
"248 705 CURVE SMOOTH",
"150 705 OFFCURVE",
"90 649 OFFCURVE",
"90 553 CURVE SMOOTH",
"90 446 OFFCURVE",
"165 394 OFFCURVE",
"243 342 CURVE SMOOTH",
"320 291 OFFCURVE",
"390 248 OFFCURVE",
"390 152 CURVE SMOOTH",
"390 67 OFFCURVE",
"335 15 OFFCURVE",
"250 15 CURVE SMOOTH",
"165 15 OFFCURVE",
"118 68 OFFCURVE",
"118 154 CURVE SMOOTH",
"118 200 LINE",
"96 200 LINE",
"96 150 LINE SMOOTH",
"96 50 OFFCURVE",
"152 -5 OFFCURVE",
"251 -5 CURVE SMOOTH"
);
},
{
closed = 1;
nodes = (
"265 -88 LINE",
"265 2 LINE",
"243 2 LINE",
"243 -88 LINE"
);
},
{
closed = 1;
nodes = (
"258 702 LINE",
"258 792 LINE",
"236 792 LINE",
"236 702 LINE"
);
}
);
width = 502;
},
{
associatedMasterId = "4F25946F-63AC-42D6-8D55-01CF6A99025B";
layerId = "E869EA52-1DFA-43F8-82AD-AF9382669512";
name = "DemiBold{119,100}";
paths = (
{
closed = 1;
nodes = (
"387 -10 OFFCURVE",
"467 63 OFFCURVE",
"467 176 CURVE SMOOTH",
"467 286 OFFCURVE",
"394 347 OFFCURVE",
"295 395 CURVE SMOOTH",
"233 430 OFFCURVE",
"175 457 OFFCURVE",
"175 518 CURVE SMOOTH",
"175 565 OFFCURVE",
"204 598 OFFCURVE",
"256 598 CURVE SMOOTH",
"309 598 OFFCURVE",
"341 564 OFFCURVE",
"341 512 CURVE SMOOTH",
"341 481 LINE",
"465 486 LINE",
"465 512 LINE SMOOTH",
"465 632 OFFCURVE",
"380 710 OFFCURVE",
"253 710 CURVE SMOOTH",
"129 710 OFFCURVE",
"49 636 OFFCURVE",
"49 524 CURVE SMOOTH",
"49 415 OFFCURVE",
"123 353 OFFCURVE",
"221 306 CURVE SMOOTH",
"279 274 OFFCURVE",
"341 245 OFFCURVE",
"341 183 CURVE SMOOTH",
"341 137 OFFCURVE",
"311 103 OFFCURVE",
"259 103 CURVE SMOOTH",
"205 103 OFFCURVE",
"176 136 OFFCURVE",
"176 193 CURVE SMOOTH",
"176 219 LINE",
"46 214 LINE",
"46 188 LINE SMOOTH",
"46 68 OFFCURVE",
"128 -10 OFFCURVE",
"261 -10 CURVE SMOOTH"
);
},
{
closed = 1;
nodes = (
"306 -80 LINE",
"306 40 LINE",
"203 40 LINE",
"203 -80 LINE"
);
},
{
closed = 1;
nodes = (
"309 652 LINE",
"309 777 LINE",
"205 777 LINE",
"205 652 LINE"
);
}
);
width = 513;
}
);
unicode = 0024;
},
{
color = 1;
glyphname = at;
lastChange = "2016-10-19 06:30:09 +0000";
layers = (
{
layerId = "262880E7-CFE1-4BDA-902E-E24798F3240A";
paths = (
{
closed = 1;
nodes = (
"640 -71 OFFCURVE",
"802 92 OFFCURVE",
"802 290 CURVE SMOOTH",
"802 488 OFFCURVE",
"640 651 OFFCURVE",
"441 651 CURVE SMOOTH",
"242 651 OFFCURVE",
"80 488 OFFCURVE",
"80 290 CURVE SMOOTH",
"80 92 OFFCURVE",
"242 -71 OFFCURVE",
"441 -71 CURVE SMOOTH"
);
},
{
closed = 1;
nodes = (
"254 -50 OFFCURVE",
"102 102 OFFCURVE",
"102 290 CURVE SMOOTH",
"102 478 OFFCURVE",
"254 630 OFFCURVE",
"441 630 CURVE SMOOTH",
"628 630 OFFCURVE",
"780 478 OFFCURVE",
"780 290 CURVE SMOOTH",
"780 102 OFFCURVE",
"628 -50 OFFCURVE",
"441 -50 CURVE SMOOTH"
);
},
{
closed = 1;
nodes = (
"507 119 OFFCURVE",
"551 166 OFFCURVE",
"551 241 CURVE SMOOTH",
"551 383 LINE SMOOTH",
"551 458 OFFCURVE",
"507 505 OFFCURVE",
"435 505 CURVE SMOOTH",
"362 505 OFFCURVE",
"314 459 OFFCURVE",
"314 384 CURVE SMOOTH",
"314 240 LINE SMOOTH",
"314 165 OFFCURVE",
"362 119 OFFCURVE",
"435 119 CURVE SMOOTH"
);
},
{
closed = 1;
nodes = (
"370 135 OFFCURVE",
"331 175 OFFCURVE",
"331 240 CURVE SMOOTH",
"331 384 LINE SMOOTH",
"331 449 OFFCURVE",
"372 489 OFFCURVE",
"435 489 CURVE SMOOTH",
"499 489 OFFCURVE",
"540 449 OFFCURVE",
"540 384 CURVE SMOOTH",
"540 240 LINE SMOOTH",
"540 175 OFFCURVE",
"501 135 OFFCURVE",
"435 135 CURVE SMOOTH"
);
},
{
closed = 1;
nodes = (
"556 124 LINE",
"556 500 LINE",
"540 500 LINE",
"540 124 LINE"
);
}
);
width = 882;
},
{
layerId = "4F25946F-63AC-42D6-8D55-01CF6A99025B";
paths = (
{
closed = 1;
nodes = (
"578 -53 OFFCURVE",
"740 108 OFFCURVE",
"740 306 CURVE SMOOTH",
"740 504 OFFCURVE",
"578 665 OFFCURVE",
"380 665 CURVE SMOOTH",
"182 665 OFFCURVE",
"20 504 OFFCURVE",
"20 306 CURVE SMOOTH",
"20 108 OFFCURVE",
"182 -53 OFFCURVE",
"380 -53 CURVE SMOOTH"
);
},
{
closed = 1;
nodes = (
"245 69 OFFCURVE",
"145 170 OFFCURVE",
"145 306 CURVE SMOOTH",
"145 442 OFFCURVE",
"245 543 OFFCURVE",
"380 543 CURVE SMOOTH",
"515 543 OFFCURVE",
"615 442 OFFCURVE",
"615 306 CURVE SMOOTH",
"615 170 OFFCURVE",
"515 69 OFFCURVE",
"380 69 CURVE SMOOTH"
);
},
{
closed = 1;
nodes = (
"401 176 OFFCURVE",
"444 236 OFFCURVE",
"444 283 CURVE SMOOTH",
"444 290 LINE SMOOTH",
"444 295 OFFCURVE",
"436 419 OFFCURVE",
"344 419 CURVE",
"289 419 OFFCURVE",
"256 392 OFFCURVE",
"256 345 CURVE SMOOTH",
"256 255 LINE SMOOTH",
"256 213 OFFCURVE",
"281 176 OFFCURVE",
"337 176 CURVE SMOOTH"
);
},
{
closed = 1;
nodes = (
"362 258 OFFCURVE",
"354 265 OFFCURVE",
"354 277 CURVE SMOOTH",
"354 320 LINE SMOOTH",
"354 332 OFFCURVE",
"362 340 OFFCURVE",
"374 340 CURVE SMOOTH",
"386 340 OFFCURVE",
"395 332 OFFCURVE",
"395 320 CURVE SMOOTH",
"395 277 LINE SMOOTH",
"395 265 OFFCURVE",
"386 258 OFFCURVE",
"374 258 CURVE SMOOTH"
);
},
{
closed = 1;
nodes = (
"493 180 LINE",
"493 416 LINE",
"395 416 LINE",
"395 180 LINE"
);
}
);
width = 760;
}
);
unicode = 0040;
},
{
color = 1;
glyphname = copyright;
lastChange = "2016-10-19 06:30:09 +0000";
layers = (
{
layerId = "262880E7-CFE1-4BDA-902E-E24798F3240A";
paths = (
{
closed = 1;
nodes = (
"640 -71 OFFCURVE",
"802 92 OFFCURVE",
"802 290 CURVE SMOOTH",
"802 488 OFFCURVE",
"640 651 OFFCURVE",
"441 651 CURVE SMOOTH",
"242 651 OFFCURVE",
"80 488 OFFCURVE",
"80 290 CURVE SMOOTH",
"80 92 OFFCURVE",
"242 -71 OFFCURVE",
"441 -71 CURVE SMOOTH"
);
},
{
closed = 1;
nodes = (
"254 -50 OFFCURVE",
"102 102 OFFCURVE",
"102 290 CURVE SMOOTH",
"102 478 OFFCURVE",
"254 630 OFFCURVE",
"441 630 CURVE SMOOTH",
"628 630 OFFCURVE",
"780 478 OFFCURVE",
"780 290 CURVE SMOOTH",
"780 102 OFFCURVE",
"628 -50 OFFCURVE",
"441 -50 CURVE SMOOTH"
);
},
{
closed = 1;
nodes = (
"513 103 OFFCURVE",
"559 148 OFFCURVE",
"559 223 CURVE SMOOTH",
"559 225 LINE",
"543 225 LINE",
"543 223 LINE SMOOTH",
"543 158 OFFCURVE",
"504 118 OFFCURVE",
"438 118 CURVE SMOOTH",
"373 118 OFFCURVE",
"334 158 OFFCURVE",
"334 223 CURVE SMOOTH",
"334 367 LINE SMOOTH",
"334 433 OFFCURVE",
"375 472 OFFCURVE",
"438 472 CURVE SMOOTH",
"502 472 OFFCURVE",
"543 433 OFFCURVE",
"543 367 CURVE SMOOTH",
"543 366 LINE",
"559 366 LINE",
"559 367 LINE SMOOTH",
"559 442 OFFCURVE",
"513 487 OFFCURVE",
"438 487 CURVE SMOOTH",
"364 487 OFFCURVE",
"317 442 OFFCURVE",
"317 367 CURVE SMOOTH",
"317 223 LINE SMOOTH",
"317 148 OFFCURVE",
"364 103 OFFCURVE",
"438 103 CURVE SMOOTH"
);
}
);
width = 882;
},
{
layerId = "4F25946F-63AC-42D6-8D55-01CF6A99025B";
paths = (
{
closed = 1;
nodes = (
"578 -53 OFFCURVE",
"740 108 OFFCURVE",
"740 306 CURVE SMOOTH",
"740 504 OFFCURVE",
"578 665 OFFCURVE",
"380 665 CURVE SMOOTH",
"182 665 OFFCURVE",
"20 504 OFFCURVE",
"20 306 CURVE SMOOTH",
"20 108 OFFCURVE",
"182 -53 OFFCURVE",
"380 -53 CURVE SMOOTH"
);
},
{
closed = 1;
nodes = (
"245 69 OFFCURVE",
"145 170 OFFCURVE",
"145 306 CURVE SMOOTH",
"145 442 OFFCURVE",
"245 543 OFFCURVE",
"380 543 CURVE SMOOTH",
"515 543 OFFCURVE",
"615 442 OFFCURVE",
"615 306 CURVE SMOOTH",
"615 170 OFFCURVE",
"515 69 OFFCURVE",
"380 69 CURVE SMOOTH"
);
},
{
closed = 1;
nodes = (
"452 170 OFFCURVE",
"500 214 OFFCURVE",
"505 290 CURVE",
"505 291 LINE",
"400 291 LINE",
"400 277 LINE SMOOTH",
"400 265 OFFCURVE",
"391 257 OFFCURVE",
"378 257 CURVE SMOOTH",
"365 257 OFFCURVE",
"356 265 OFFCURVE",
"356 277 CURVE",
"356 323 LINE",
"356 336 OFFCURVE",
"365 344 OFFCURVE",
"378 344 CURVE SMOOTH",
"391 344 OFFCURVE",
"400 336 OFFCURVE",
"400 323 CURVE",
"400 313 LINE",
"505 313 LINE",
"505 314 LINE",
"504 386 OFFCURVE",
"457 428 OFFCURVE",
"377 428 CURVE SMOOTH",
"297 428 OFFCURVE",
"250 382 OFFCURVE",
"250 302 CURVE SMOOTH",
"250 298 LINE SMOOTH",
"250 217 OFFCURVE",
"297 170 OFFCURVE",
"377 170 CURVE SMOOTH"
);
}
);
width = 760;
}
);
unicode = 00A9;
},
{
color = 1;
glyphname = registered;
lastChange = "2016-10-19 06:30:09 +0000";
layers = (
{
layerId = "262880E7-CFE1-4BDA-902E-E24798F3240A";
paths = (
{
closed = 1;
nodes = (
"640 -72 OFFCURVE",
"802 91 OFFCURVE",
"802 289 CURVE SMOOTH",
"802 487 OFFCURVE",
"640 650 OFFCURVE",
"441 650 CURVE SMOOTH",
"242 650 OFFCURVE",
"80 487 OFFCURVE",
"80 289 CURVE SMOOTH",
"80 91 OFFCURVE",
"242 -72 OFFCURVE",
"441 -72 CURVE SMOOTH"
);
},
{
closed = 1;
nodes = (
"254 -51 OFFCURVE",
"102 101 OFFCURVE",
"102 289 CURVE SMOOTH",
"102 477 OFFCURVE",
"254 629 OFFCURVE",
"441 629 CURVE SMOOTH",
"628 629 OFFCURVE",
"780 477 OFFCURVE",
"780 289 CURVE SMOOTH",
"780 101 OFFCURVE",
"628 -51 OFFCURVE",
"441 -51 CURVE SMOOTH"
);
},
{
closed = 1;
nodes = (
"380 105 LINE",
"380 489 LINE",
"452 489 LINE SMOOTH",
"508 489 OFFCURVE",
"543 453 OFFCURVE",
"543 394 CURVE SMOOTH",
"543 335 OFFCURVE",
"508 299 OFFCURVE",
"452 299 CURVE SMOOTH",
"377 299 LINE",
"377 287 LINE",
"452 287 LINE SMOOTH",
"515 287 OFFCURVE",
"555 328 OFFCURVE",
"555 394 CURVE SMOOTH",
"555 460 OFFCURVE",
"515 500 OFFCURVE",
"452 500 CURVE SMOOTH",
"367 500 LINE",
"367 105 LINE"
);
},
{
closed = 1;
nodes = (
"529 103 LINE",
"464 295 LINE",
"453 291 LINE",
"516 103 LINE"
);
}
